<?xml version="1.0" encoding="UTF-8"?>
<svg xmlns="http://www.w3.org/2000/svg" xmlns:xlink="http://www.w3.org/1999/xlink" version="1.1" viewBox="0 0 1920 171">
  <defs>
    <style>
      .cls-1 {
        mask: url(#mask);
      }

      .cls-2 {
        fill: #023047;
      }

      .cls-3 {
        fill: url(#Adsız_degrade_4);
      }

      .cls-4 {
        fill: none;
        stroke: #fff;
        stroke-width: 3px;
      }

      .cls-5 {
        opacity: .2;
      }
    </style>
    <mask id="mask" x="0" y=".7" width="1920" height="523.5" maskUnits="userSpaceOnUse">
      <g id="mask0_458_2901">
        <path class="cls-2" d="M1913.1,54.1c-69.8,67.1-172.9,88.1-268.7,79.5-95.8-8.7-187.1-43.4-278-75C1275.4,26.8,1181.3-2.3,1085.2.9c-202.9,6.8-385.6,156.2-588.3,143.9-87.7-5.3-170.7-40.9-257.5-54.5-86.8-13.6-187.9,1.5-239.4,73.6v253.6h1920l-6.9-363.4Z"/>
      </g>
    </mask>
    <linearGradient id="Adsız_degrade_4" data-name="Adsız degrade 4" x1="957.4" y1="-192.5" x2="968.7" y2="127.9" gradientTransform="translate(0 172) scale(1 -1)" gradientUnits="userSpaceOnUse">
      <stop offset="0" stop-color="#9d7298" stop-opacity="0"/>
      <stop offset="1" stop-color="#50394c"/>
    </linearGradient>
  </defs>
  <!-- Generator: Adobe Illustrator 28.7.1, SVG Export Plug-In . SVG Version: 1.2.0 Build 142)  -->
  <g>
    <g id="katman_1">
      <g class="cls-1">
        <g>
          <g class="cls-5">
            <path class="cls-4" d="M10,40.7v483.5"/>
            <path class="cls-4" d="M35,40.7v483.5"/>
            <path class="cls-4" d="M60,40.7v483.5"/>
            <path class="cls-4" d="M85,40.7v483.5"/>
            <path class="cls-4" d="M110,40.7v483.5"/>
            <path class="cls-4" d="M135,40.7v483.5"/>
            <path class="cls-4" d="M160,40.7v483.5"/>
            <path class="cls-4" d="M185,40.7v483.5"/>
            <path class="cls-4" d="M210,40.7v483.5"/>
            <path class="cls-4" d="M235,40.7v483.5"/>
            <path class="cls-4" d="M260,40.7v483.5"/>
            <path class="cls-4" d="M285,40.7v483.5"/>
            <path class="cls-4" d="M310,40.7v483.5"/>
            <path class="cls-4" d="M335,40.7v483.5"/>
            <path class="cls-4" d="M360,40.7v483.5"/>
            <path class="cls-4" d="M385,40.7v483.5"/>
            <path class="cls-4" d="M410,40.7v483.5"/>
            <path class="cls-4" d="M435,40.7v483.5"/>
            <path class="cls-4" d="M460,40.7v483.5"/>
            <path class="cls-4" d="M485,40.7v483.5"/>
            <path class="cls-4" d="M510,40.7v483.5"/>
            <path class="cls-4" d="M535,40.7v483.5"/>
            <path class="cls-4" d="M560,40.7v483.5"/>
            <path class="cls-4" d="M585,40.7v483.5"/>
            <path class="cls-4" d="M610,40.7v483.5"/>
            <path class="cls-4" d="M635,40.7v483.5"/>
            <path class="cls-4" d="M660,40.7v483.5"/>
            <path class="cls-4" d="M685,40.7v483.5"/>
            <path class="cls-4" d="M710,40.7v483.5"/>
            <path class="cls-4" d="M735,40.7v483.5"/>
            <path class="cls-4" d="M760,40.7v483.5"/>
            <path class="cls-4" d="M785,40.7v483.5"/>
            <path class="cls-4" d="M810,40.7v483.5"/>
            <path class="cls-4" d="M835,40.7v483.5"/>
            <path class="cls-4" d="M860,40.7v483.5"/>
            <path class="cls-4" d="M885,40.7v483.5"/>
            <path class="cls-4" d="M910,40.7v483.5"/>
            <path class="cls-4" d="M935,40.7v483.5"/>
            <path class="cls-4" d="M960,40.7v483.5"/>
            <path class="cls-4" d="M985,40.7v483.5"/>
            <path class="cls-4" d="M1010,40.7v483.5"/>
            <path class="cls-4" d="M1035,40.7v483.5"/>
            <path class="cls-4" d="M1060,40.7v483.5"/>
            <path class="cls-4" d="M1085,40.7v483.5"/>
            <path class="cls-4" d="M1110,40.7v483.5"/>
            <path class="cls-4" d="M1135,40.7v483.5"/>
            <path class="cls-4" d="M1160,40.7v483.5"/>
            <path class="cls-4" d="M1185,40.7v483.5"/>
            <path class="cls-4" d="M1210,40.7v483.5"/>
            <path class="cls-4" d="M1235,40.7v483.5"/>
            <path class="cls-4" d="M1260,40.7v483.5"/>
            <path class="cls-4" d="M1285,40.7v483.5"/>
            <path class="cls-4" d="M1310,40.7v483.5"/>
            <path class="cls-4" d="M1335,40.7v483.5"/>
            <path class="cls-4" d="M1360,40.7v483.5"/>
            <path class="cls-4" d="M1385,40.7v483.5"/>
            <path class="cls-4" d="M1410,40.7v483.5"/>
            <path class="cls-4" d="M1435,40.7v483.5"/>
            <path class="cls-4" d="M1460,40.7v483.5"/>
            <path class="cls-4" d="M1485,40.7v483.5"/>
            <path class="cls-4" d="M1510,40.7v483.5"/>
            <path class="cls-4" d="M1535,40.7v483.5"/>
            <path class="cls-4" d="M1560,40.7v483.5"/>
            <path class="cls-4" d="M1585,40.7v483.5"/>
            <path class="cls-4" d="M1610,40.7v483.5"/>
            <path class="cls-4" d="M1635,40.7v483.5"/>
            <path class="cls-4" d="M1660,40.7v483.5"/>
            <path class="cls-4" d="M1685,40.7v483.5"/>
            <path class="cls-4" d="M1710,40.7v483.5"/>
            <path class="cls-4" d="M1735,40.7v483.5"/>
            <path class="cls-4" d="M1760,40.7v483.5"/>
            <path class="cls-4" d="M1785,40.7v483.5"/>
            <path class="cls-4" d="M1810,40.7v483.5"/>
            <path class="cls-4" d="M1835,40.7v483.5"/>
            <path class="cls-4" d="M1860,40.7v483.5"/>
            <path class="cls-4" d="M1885,40.7v483.5"/>
            <path class="cls-4" d="M1910,40.7v483.5"/>
          </g>
          <path class="cls-3" d="M1913.1,54.1c-69.8,67.1-172.9,88.1-268.7,79.5-95.8-8.7-187.1-43.4-278-75C1275.4,26.8,1181.3-2.3,1085.2.9c-202.9,6.8-385.6,156.2-588.3,143.9-87.7-5.3-170.7-40.9-257.5-54.5-86.8-13.6-187.9,1.5-239.4,73.6v253.6h1920l-6.9-363.4Z"/>
        </g>
      </g>
    </g>
  </g>
</svg>