<?xml version="1.0" encoding="UTF-8"?>
<svg xmlns="http://www.w3.org/2000/svg" version="1.1" viewBox="0 0 37 31">
  <defs>
    <style>
      .cls-1 {
        fill: #fff;
      }
    </style>
  </defs>
  <!-- Generator: Adobe Illustrator 28.7.1, SVG Export Plug-In . SVG Version: 1.2.0 Build 142)  -->
  <g>
    <g id="katman_1">
      <path class="cls-1" d="M20.8.4c-1.3,0-2.4,1.1-2.4,2.4v1.2H.4v22.8h3.8c.5,2.1,2.4,3.6,4.6,3.6s4.1-1.5,4.6-3.6h10c.5,2.1,2.4,3.6,4.6,3.6s4.1-1.5,4.6-3.6h3.8v-13.6l-.3-.3-7.2-8.4-.3-.4h-5.4v-1.2c0-1.3-1.1-2.4-2.4-2.4ZM2.8,6.4h24.6l6.6,7.6v10.3h-1.4c-.5-2.1-2.4-3.6-4.6-3.6s-4.1,1.5-4.6,3.6h-10c-.5-2.1-2.4-3.6-4.6-3.6s-4.1,1.5-4.6,3.6h-1.4V6.4ZM8.8,23.2c1.3,0,2.4,1.1,2.4,2.4s-1.1,2.4-2.4,2.4-2.4-1.1-2.4-2.4,1.1-2.4,2.4-2.4ZM28,23.2c1.3,0,2.4,1.1,2.4,2.4s-1.1,2.4-2.4,2.4-2.4-1.1-2.4-2.4,1.1-2.4,2.4-2.4Z"/>
    </g>
  </g>
</svg>