<?xml version="1.0" encoding="UTF-8"?>
<svg xmlns="http://www.w3.org/2000/svg" version="1.1" viewBox="0 0 38 41">
  <defs>
    <style>
      .cls-1 {
        fill: #9d7298;
      }
    </style>
  </defs>
  <!-- Generator: Adobe Illustrator 28.7.1, SVG Export Plug-In . SVG Version: 1.2.0 Build 142)  -->
  <g>
    <g id="katman_1">
      <g>
        <g>
          <path class="cls-1" d="M2.5,16c-.4-.3-.6-.7-.6-1.2h1.6c0,.3.1.4.4.4s.2,0,.2,0c0,0,0-.1,0-.2s0-.2-.2-.3c-.1,0-.3-.2-.6-.2-.3-.1-.6-.2-.8-.3-.2-.1-.4-.3-.5-.5-.1-.2-.2-.5-.2-.8,0-.3,0-.6.2-.8.2-.2.4-.4.7-.5.3-.1.6-.2,1-.2.6,0,1.1.1,1.4.4.4.3.5.7.6,1.2h-1.7c0-.1,0-.2-.1-.3,0,0-.1,0-.2,0s-.1,0-.2,0c0,0,0,.1,0,.2s0,.2.2.3c.1,0,.3.2.6.3.3.1.6.2.8.3.2.1.4.3.5.4.1.2.2.4.2.7s0,.6-.2.8c-.1.2-.4.4-.6.6-.3.1-.6.2-1,.2-.6,0-1.1-.1-1.4-.4Z"/>
          <path class="cls-1" d="M9.5,15.6h-1.6l-.2.7h-1.6l1.8-4.9h1.8l1.8,4.9h-1.6l-.2-.7ZM9.1,14.4l-.4-1.4-.4,1.4h.9Z"/>
          <path class="cls-1" d="M15.7,14.3c.2.2.2.5.2.7,0,.4-.1.8-.4,1-.3.2-.7.3-1.2.3h-2.6v-4.9h2.5c.5,0,.9.1,1.2.3.3.2.4.5.4.9s0,.5-.2.7c-.1.2-.3.3-.6.4.3,0,.5.2.7.4ZM13.2,13.4h.6c.1,0,.2,0,.3,0,0,0,.1-.1.1-.3s0-.2-.1-.3c0,0-.2,0-.3,0h-.6v.7ZM14.2,15c0,0,.1-.1.1-.3,0-.2-.1-.4-.4-.4h-.7v.7h.7c.1,0,.2,0,.3,0Z"/>
          <path class="cls-1" d="M17.9,11.5v2.8c0,.2,0,.4.1.5,0,.1.3.2.5.2s.4,0,.5-.2c.1-.1.2-.3.2-.5v-2.8h1.5v2.8c0,.5,0,.9-.3,1.2-.2.3-.5.6-.8.7-.3.2-.7.2-1.1.2s-.8,0-1.1-.2c-.3-.2-.6-.4-.7-.7-.2-.3-.3-.7-.3-1.2v-2.8h1.5Z"/>
          <path class="cls-1" d="M26.1,16.3h-1.5l-1.6-2.5v2.5h-1.5v-4.9h1.5l1.6,2.5v-2.5h1.5v4.9Z"/>
          <path class="cls-1" d="M26.9,12.6c.2-.4.5-.7.8-.9.4-.2.8-.3,1.3-.3s.8,0,1.1.2c.3.2.6.4.8.7.2.3.3.6.4,1h-1.6c0-.2-.2-.3-.3-.4-.1,0-.3-.1-.5-.1-.3,0-.5,0-.6.3-.1.2-.2.5-.2.8s0,.6.2.8c.1.2.4.3.6.3s.3,0,.5-.1c.1,0,.2-.2.3-.4h1.6c0,.4-.2.7-.4,1-.2.3-.5.5-.8.7-.3.2-.7.2-1.1.2s-.9-.1-1.3-.3c-.4-.2-.6-.5-.8-.9-.2-.4-.3-.8-.3-1.3s0-.9.3-1.3Z"/>
          <path class="cls-1" d="M33.5,11.5v2.8c0,.2,0,.4.1.5,0,.1.3.2.5.2s.4,0,.5-.2c.1-.1.2-.3.2-.5v-2.8h1.5v2.8c0,.5,0,.9-.3,1.2-.2.3-.5.6-.8.7-.3.2-.7.2-1.1.2s-.8,0-1.1-.2c-.3-.2-.6-.4-.7-.7-.2-.3-.3-.7-.3-1.2v-2.8h1.5Z"/>
        </g>
        <g>
          <path class="cls-1" d="M2.2,27.7v1.1c0,.2,0,.3.1.3,0,0,.2.1.3.1s.2,0,.3-.1c0,0,.1-.2.1-.3v-1.1h.2v1.1c0,.1,0,.3,0,.4,0,0-.1.2-.2.2,0,0-.2,0-.3,0s-.2,0-.3,0c0,0-.2-.1-.2-.2,0,0,0-.2,0-.4v-1.1h.2Z"/>
          <path class="cls-1" d="M3.8,29.2h.7v.2h-.9v-.2l.7-1h-.7v-.2h.9v.2l-.7,1Z"/>
          <path class="cls-1" d="M6.7,28.1c0,0,.1.1.2.2,0,0,0,.2,0,.3v.8h-.2v-.8c0-.1,0-.2-.1-.3,0,0-.2-.1-.3-.1s-.2,0-.3.1c0,0-.1.2-.1.3v.8h-.2v-.8c0-.1,0-.2-.1-.3,0,0-.2-.1-.3-.1s-.2,0-.3.1c0,0-.1.2-.1.3v.8h-.2v-1.4h.2v.2c0,0,.1-.1.2-.2,0,0,.2,0,.2,0s.2,0,.3,0c0,0,.2.1.2.2,0,0,.1-.2.2-.2,0,0,.2,0,.3,0s.2,0,.3,0Z"/>
          <path class="cls-1" d="M7.3,29.4s0,0,0-.1,0,0,0-.1,0,0,.1,0,0,0,.1,0c0,0,0,0,0,.1s0,0,0,.1c0,0,0,0-.1,0s0,0-.1,0Z"/>
          <path class="cls-1" d="M9.5,28.5c0,0-.2.1-.5.1h-.3v.7h-.2v-1.7h.6c.2,0,.3,0,.4.1s.2.2.2.4,0,.3-.1.4ZM9.4,28.4c0,0,0-.1,0-.2,0-.2-.1-.3-.4-.3h-.3v.6h.3c.1,0,.2,0,.3,0Z"/>
          <path class="cls-1" d="M10.2,29.4c0,0-.1,0-.2-.1,0,0,0-.1,0-.2h.2c0,0,0,.1,0,.2,0,0,.1,0,.2,0s.2,0,.2,0c0,0,0,0,0-.1s0-.1,0-.1c0,0-.1,0-.2,0-.1,0-.2,0-.2,0,0,0-.1,0-.2-.1,0,0,0-.1,0-.2s0-.1,0-.2.1-.1.2-.1c0,0,.2,0,.3,0,.2,0,.3,0,.4.1,0,0,.1.2.1.3h-.2c0,0,0-.1,0-.2,0,0-.1,0-.2,0s-.1,0-.2,0c0,0,0,0,0,.1s0,0,0,.1c0,0,0,0,.1,0,0,0,.1,0,.2,0,0,0,.2,0,.2,0,0,0,.1,0,.2.1,0,0,0,.1,0,.2,0,0,0,.1,0,.2,0,0,0,.1-.2.1s-.2,0-.3,0-.2,0-.3,0Z"/>
          <path class="cls-1" d="M12,29.4l-.5-.6v.6h-.2v-1.8h.2v1.1l.5-.6h.3l-.6.7.6.7h-.3Z"/>
          <path class="cls-1" d="M12.5,29.4s0,0,0-.1,0,0,0-.1c0,0,0,0,.1,0s0,0,.1,0c0,0,0,0,0,.1s0,0,0,.1c0,0,0,0-.1,0s0,0-.1,0Z"/>
          <path class="cls-1" d="M15.5,27.7v1.7h-.2v-1.3l-.6,1.3h-.2l-.6-1.3v1.3h-.2v-1.7h.2l.6,1.4.6-1.4h.2Z"/>
          <path class="cls-1" d="M17.1,28v1.4h-.2v-.2c0,0-.1.1-.2.2,0,0-.2,0-.3,0s-.2,0-.3,0-.2-.1-.2-.2c0,0,0-.2,0-.3v-.8h.2v.8c0,.1,0,.2.1.3,0,0,.2.1.3.1s.2,0,.3-.1c0,0,.1-.2.1-.3v-.7h.2ZM16.2,27.8s0,0,0,0,0,0,0,0,0,0,0,0,0,0,0,0c0,0,0,0,0,0s0,0,0,0c0,0,0,0,0,0s0,0,0,0ZM16.6,27.8s0,0,0,0,0,0,0,0c0,0,0,0,0,0s0,0,0,0c0,0,0,0,0,0s0,0,0,0c0,0,0,0,0,0s0,0,0,0Z"/>
          <path class="cls-1" d="M17.9,28.1c0,0,.2,0,.3,0s.2,0,.3,0,.2.1.2.2c0,.1,0,.2,0,.4s0,.3,0,.4c0,.1-.1.2-.2.3,0,0-.2,0-.3,0s-.2,0-.3,0c0,0-.2-.1-.2-.2v.3h-.2v-1.8h.2v.7c0,0,.1-.1.2-.2ZM18.6,28.4c0,0,0-.1-.2-.2,0,0-.1,0-.2,0s-.2,0-.2,0c0,0-.1,0-.2.2,0,0,0,.2,0,.3s0,.2,0,.3c0,0,0,.1.2.2,0,0,.1,0,.2,0s.2,0,.2,0c0,0,.1,0,.2-.2,0,0,0-.2,0-.3s0-.2,0-.3Z"/>
          <path class="cls-1" d="M20.4,28.8h-1.1c0,.1,0,.2.1.3,0,0,.2.1.3.1s.2,0,.2,0,.1-.1.1-.2h.2c0,.1-.1.2-.2.3-.1,0-.2.1-.4.1s-.2,0-.3,0-.2-.1-.2-.2c0-.1,0-.2,0-.4s0-.3,0-.4c0-.1.1-.2.2-.2s.2,0,.4,0,.2,0,.3,0,.2.1.2.2c0,0,0,.2,0,.3s0,0,0,.1ZM20.1,28.4c0,0,0-.1-.2-.1,0,0-.1,0-.2,0-.1,0-.2,0-.3.1,0,0-.1.2-.1.3h.9c0,0,0-.2,0-.2Z"/>
          <path class="cls-1" d="M21.1,28.1c0,0,.2,0,.3,0v.2h0c-.3,0-.4.1-.4.4v.7h-.2v-1.4h.2v.2c0,0,0-.1.2-.2Z"/>
          <path class="cls-1" d="M22,28.1c0,0,.2,0,.3,0v.2h0c-.3,0-.4.1-.4.4v.7h-.2v-1.4h.2v.2c0,0,0-.1.2-.2Z"/>
          <path class="cls-1" d="M22.5,28.3c0-.1.1-.2.2-.2,0,0,.2,0,.3,0s.2,0,.3,0c0,0,.2.1.2.2v-.2h.2v1.4h-.2v-.3c0,0-.1.1-.2.2,0,0-.2,0-.3,0s-.2,0-.3,0c0,0-.2-.1-.2-.3,0-.1,0-.2,0-.4s0-.3,0-.4ZM23.5,28.4c0,0,0-.1-.2-.2,0,0-.1,0-.2,0s-.2,0-.2,0c0,0-.1,0-.2.2s0,.2,0,.3,0,.2,0,.3c0,0,0,.1.2.2,0,0,.1,0,.2,0s.2,0,.2,0c0,0,.1,0,.2-.2,0,0,0-.2,0-.3s0-.2,0-.3Z"/>
          <path class="cls-1" d="M25.1,29.3c0,0-.2,0-.2-.2,0,0,0-.2,0-.2h.2c0,0,0,.1.1.2,0,0,.1,0,.3,0s.2,0,.3,0c0,0,0-.1,0-.2s0-.1,0-.2c0,0,0,0-.1,0,0,0-.1,0-.2,0-.1,0-.2,0-.3,0,0,0-.1,0-.2-.1,0,0,0-.1,0-.3s0-.2,0-.3c0,0,.1-.1.2-.2,0,0,.2,0,.3,0,.2,0,.3,0,.4.1.1,0,.2.2.2.3h-.2c0,0,0-.1-.1-.2,0,0-.1,0-.2,0s-.2,0-.2,0c0,0,0,.1,0,.2s0,.1,0,.2c0,0,0,0,.1,0,0,0,.1,0,.2,0,.1,0,.2,0,.3,0,0,0,.1,0,.2.1,0,0,0,.2,0,.3s0,.2,0,.2c0,0-.1.1-.2.2,0,0-.2,0-.3,0s-.2,0-.3,0Z"/>
          <path class="cls-1" d="M27.4,29h-.8v.4h-.4l.6-1.7h.3l.6,1.7h-.2v-.4ZM27.3,28.8l-.3-.9-.3.9h.6Z"/>
          <path class="cls-1" d="M29.1,28.6c0,0,0,0,.1.2,0,0,0,.1,0,.2s0,.2,0,.2c0,0-.1.1-.2.2,0,0-.2,0-.3,0h-.6v-1.7h.6c.1,0,.2,0,.3,0,0,0,.1,0,.2.2,0,0,0,.1,0,.2s0,.2,0,.3c0,0-.1.1-.2.1,0,0,.1,0,.2,0ZM28.2,28.4h.4c.1,0,.2,0,.2,0s0-.1,0-.2,0-.2,0-.2-.1,0-.3,0h-.4v.6ZM28.9,29.1c0,0,0-.1,0-.2s0-.2,0-.2c0,0-.2,0-.3,0h-.4v.6h.4c.1,0,.2,0,.3,0Z"/>
          <path class="cls-1" d="M29.8,27.7v1.1c0,.2,0,.3.1.3,0,0,.2.1.3.1s.2,0,.3-.1c0,0,.1-.2.1-.3v-1.1h.2v1.1c0,.1,0,.3,0,.4,0,0-.1.2-.2.2,0,0-.2,0-.3,0s-.2,0-.3,0c0,0-.2-.1-.2-.2,0,0,0-.2,0-.4v-1.1h.2Z"/>
          <path class="cls-1" d="M32.6,29.4h-.2l-.9-1.4v1.4h-.2v-1.7h.2l.9,1.4v-1.4h.2v1.7Z"/>
          <path class="cls-1" d="M33,28.1c0-.1.2-.2.3-.3.1,0,.3-.1.4-.1s.4,0,.5.1c.1,0,.2.2.3.4h-.3c0-.1-.1-.2-.2-.2,0,0-.2,0-.3,0s-.2,0-.3,0c0,0-.2.1-.2.2,0,.1,0,.2,0,.4s0,.3,0,.4c0,.1.1.2.2.2,0,0,.2,0,.3,0s.2,0,.3,0c0,0,.2-.1.2-.2h.3c0,.2-.2.3-.3.4-.1,0-.3.1-.5.1s-.3,0-.4-.1c-.1,0-.2-.2-.3-.3,0-.1-.1-.3-.1-.5s0-.3.1-.5Z"/>
          <path class="cls-1" d="M35.1,27.7v1.1c0,.2,0,.3.1.3,0,0,.2.1.3.1s.2,0,.3-.1c0,0,.1-.2.1-.3v-1.1h.2v1.1c0,.1,0,.3,0,.4,0,0-.1.2-.2.2,0,0-.2,0-.3,0s-.2,0-.3,0c0,0-.2-.1-.2-.2,0,0,0-.2,0-.4v-1.1h.2Z"/>
        </g>
        <g>
          <path class="cls-1" d="M4.9,22.1c-.3.3-.7.4-1.3.4h-1v2.2h-.7v-5.2h1.7c.6,0,1,.1,1.3.4s.5.6.5,1.1-.1.8-.4,1.1ZM4.4,21.7c.2-.2.3-.4.3-.7,0-.6-.4-1-1.1-1h-1v1.9h1c.4,0,.7,0,.8-.2Z"/>
          <g>
            <path class="cls-1" d="M36.3,20.7v4h-.7v-4h.7Z"/>
            <path class="cls-1" d="M36.3,19.5v1.1l-.7-.5v-.7h.7Z"/>
          </g>
          <path class="cls-1" d="M6.9,24.5c-.3-.1-.5-.3-.6-.5-.2-.2-.2-.5-.2-.7h.7c0,.2.1.4.3.6.2.2.4.2.8.2s.6,0,.8-.2c.2-.2.3-.4.3-.6s0-.4-.2-.5c-.1-.1-.2-.2-.4-.3-.2,0-.4-.1-.7-.2-.3,0-.6-.2-.8-.3-.2,0-.4-.2-.5-.4-.1-.2-.2-.4-.2-.8s0-.5.2-.7c.1-.2.3-.4.6-.5.3-.1.6-.2.9-.2.5,0,.9.1,1.2.4.3.2.5.6.5,1h-.7c0-.2-.1-.4-.3-.5-.2-.2-.4-.2-.7-.2s-.5,0-.7.2c-.2.1-.3.3-.3.6s0,.3.2.5c.1.1.2.2.4.3.2,0,.4.1.7.2.3,0,.6.2.8.3.2,0,.4.2.5.4.1.2.2.4.2.8s0,.5-.2.7c-.1.2-.3.4-.6.5-.3.1-.6.2-.9.2s-.6,0-.9-.2Z"/>
          <g>
            <path class="cls-1" d="M11.2,20.7v4h-.7v-4h.7Z"/>
            <path class="cls-1" d="M11.2,19.5v1.1l-.7-.5v-.7h.7Z"/>
          </g>
          <path class="cls-1" d="M15.2,24.7l-2.1-2.4v2.4h-.7v-5.2h.7v2.4l2.1-2.4h.9l-2.3,2.6,2.4,2.6h-.9Z"/>
          <path class="cls-1" d="M17.8,24.4c-.4-.2-.7-.5-.9-.9-.2-.4-.3-.9-.3-1.4s.1-1,.3-1.4c.2-.4.5-.7.9-.9.4-.2.8-.3,1.3-.3s.9.1,1.3.3c.4.2.7.5.9.9.2.4.3.9.3,1.4s-.1,1-.3,1.4c-.2.4-.5.7-.9.9-.4.2-.8.3-1.3.3s-.9-.1-1.3-.3ZM20.1,23.9c.3-.2.5-.4.7-.7.2-.3.2-.7.2-1.1s0-.8-.2-1.1c-.2-.3-.4-.5-.7-.7-.3-.2-.6-.3-1-.3s-.7,0-1,.3c-.3.2-.5.4-.7.7-.2.3-.2.7-.2,1.1s0,.8.2,1.1c.2.3.4.6.7.7.3.2.6.3,1,.3s.7,0,1-.3Z"/>
          <path class="cls-1" d="M23.3,24.1h1.8v.5h-2.5v-5.2h.7v4.6Z"/>
          <path class="cls-1" d="M26.9,24.4c-.4-.2-.7-.5-.9-.9-.2-.4-.3-.9-.3-1.4s.1-1,.3-1.4c.2-.4.5-.7.9-.9.4-.2.8-.3,1.3-.3s.9.1,1.3.3c.4.2.7.5.9.9.2.4.3.9.3,1.4s-.1,1-.3,1.4c-.2.4-.5.7-.9.9-.4.2-.8.3-1.3.3s-.9-.1-1.3-.3ZM29.2,23.9c.3-.2.5-.4.7-.7.2-.3.2-.7.2-1.1s0-.8-.2-1.1c-.2-.3-.4-.5-.7-.7-.3-.2-.6-.3-1-.3s-.7,0-1,.3c-.3.2-.5.4-.7.7-.2.3-.2.7-.2,1.1s0,.8.2,1.1c.2.3.4.6.7.7.3.2.6.3,1,.3s.7,0,1-.3Z"/>
          <path class="cls-1" d="M34.3,19.5v3.8c0,.4-.1.8-.4,1-.3.3-.6.4-1,.4s-.8-.1-1-.4c-.3-.3-.4-.6-.4-1.1h.7c0,.3,0,.5.2.6.1.2.3.2.6.2s.4,0,.6-.2c.1-.2.2-.3.2-.6v-3.8h.7Z"/>
        </g>
      </g>
    </g>
  </g>
</svg>