<?xml version="1.0" encoding="UTF-8"?>
<svg xmlns="http://www.w3.org/2000/svg" version="1.1" viewBox="0 0 42 41">
  <defs>
    <style>
      .cls-1 {
        fill: #9d7298;
      }
    </style>
  </defs>
  <!-- Generator: Adobe Illustrator 28.7.1, SVG Export Plug-In . SVG Version: 1.2.0 Build 142)  -->
  <g>
    <g id="katman_1">
      <g>
        <g>
          <path class="cls-1" d="M1.6,15.3c-.4-.3-.7-.8-.7-1.4h1.9c0,.3.2.5.4.5s.2,0,.2,0c0,0,.1-.1.1-.2s0-.2-.2-.3c-.1,0-.4-.2-.7-.3-.4-.1-.7-.3-.9-.4-.2-.1-.4-.3-.6-.5-.2-.2-.3-.5-.3-.9,0-.4,0-.7.3-1,.2-.3.5-.5.8-.6.3-.1.7-.2,1.1-.2.7,0,1.3.2,1.7.5.4.3.6.8.7,1.4h-1.9c0-.2,0-.3-.1-.3,0,0-.2-.1-.3-.1s-.1,0-.2,0c0,0,0,.1,0,.2s0,.2.2.3c.1,0,.4.2.7.3.4.1.7.3.9.4.2.1.4.3.6.5.2.2.3.5.3.8s0,.7-.3.9c-.2.3-.4.5-.8.7-.3.2-.7.2-1.2.2-.7,0-1.3-.2-1.7-.5Z"/>
          <path class="cls-1" d="M9.8,14.8h-1.9l-.3.9h-1.9l2.1-5.7h2.1l2.1,5.7h-1.9l-.3-.9ZM9.4,13.5l-.5-1.6-.5,1.6h1Z"/>
          <path class="cls-1" d="M17.1,13.2c.2.3.3.5.3.9,0,.5-.2.9-.5,1.2-.3.3-.8.4-1.4.4h-3v-5.7h2.9c.6,0,1,.1,1.4.4.3.3.5.6.5,1.1s0,.6-.3.8c-.2.2-.4.4-.7.5.3,0,.6.2.8.5ZM14.2,12.2h.7c.2,0,.3,0,.4,0,0,0,.1-.2.1-.3s0-.2-.1-.3c0,0-.2-.1-.4-.1h-.7v.8ZM15.4,14.1c0,0,.1-.2.1-.3,0-.3-.2-.4-.5-.4h-.8v.8h.8c.2,0,.3,0,.4,0Z"/>
          <path class="cls-1" d="M19.7,9.9v3.2c0,.3,0,.5.2.6.1.2.3.2.6.2s.5,0,.6-.2c.1-.2.2-.4.2-.6v-3.2h1.8v3.2c0,.5-.1,1-.3,1.4-.2.4-.5.7-.9.9-.4.2-.8.3-1.3.3s-.9,0-1.3-.3c-.4-.2-.7-.5-.9-.9-.2-.4-.3-.9-.3-1.4v-3.2h1.8Z"/>
          <path class="cls-1" d="M29.3,15.7h-1.8l-1.9-2.9v2.9h-1.8v-5.7h1.8l1.9,2.9v-2.9h1.8v5.7Z"/>
          <path class="cls-1" d="M30.3,11.3c.2-.4.6-.8,1-1,.4-.2.9-.4,1.5-.4s.9,0,1.3.3c.4.2.7.5,1,.8.2.3.4.7.5,1.2h-1.9c0-.2-.2-.3-.4-.4-.2-.1-.3-.2-.5-.2-.3,0-.5.1-.7.3-.2.2-.3.5-.3.9s0,.7.3.9c.2.2.4.3.7.3s.4,0,.5-.2c.2-.1.3-.3.4-.4h1.9c0,.5-.2.9-.5,1.2-.2.3-.6.6-1,.8-.4.2-.8.3-1.3.3s-1.1-.1-1.5-.4c-.4-.2-.8-.6-1-1-.2-.4-.3-.9-.3-1.5s.1-1.1.3-1.5Z"/>
          <path class="cls-1" d="M38,9.9v3.2c0,.3,0,.5.2.6.1.2.3.2.6.2s.5,0,.6-.2c.1-.2.2-.4.2-.6v-3.2h1.8v3.2c0,.5-.1,1-.3,1.4-.2.4-.5.7-.9.9-.4.2-.8.3-1.3.3s-.9,0-1.3-.3c-.4-.2-.7-.5-.9-.9-.2-.4-.3-.9-.3-1.4v-3.2h1.8Z"/>
        </g>
        <g>
          <path class="cls-1" d="M1.3,29v1.3c0,.2,0,.3.1.4,0,0,.2.1.4.1s.3,0,.4-.1c0,0,.1-.2.1-.4v-1.3h.3v1.3c0,.2,0,.3-.1.4,0,.1-.2.2-.3.3-.1,0-.2,0-.4,0s-.3,0-.4,0c-.1,0-.2-.1-.3-.3,0-.1-.1-.3-.1-.4v-1.3h.3Z"/>
          <path class="cls-1" d="M3.2,30.8h.8v.2h-1.1v-.2l.8-1.2h-.8v-.2h1.1v.2l-.8,1.2Z"/>
          <path class="cls-1" d="M6.6,29.5c0,0,.2.1.2.2,0,.1,0,.2,0,.4v.9h-.3v-.9c0-.2,0-.3-.1-.4,0,0-.2-.1-.3-.1s-.2,0-.3.1c0,0-.1.2-.1.4v.9h-.3v-.9c0-.2,0-.3-.1-.4,0,0-.2-.1-.3-.1s-.2,0-.3.1c0,0-.1.2-.1.4v.9h-.3v-1.6h.3v.2c0,0,.1-.1.2-.2,0,0,.2,0,.3,0s.3,0,.4,0c.1,0,.2.1.2.3,0-.1.1-.2.2-.3.1,0,.2,0,.3,0s.2,0,.3,0Z"/>
          <path class="cls-1" d="M7.3,31s0,0,0-.1,0,0,0-.1,0,0,.1,0,0,0,.1,0c0,0,0,0,0,.1s0,0,0,.1c0,0,0,0-.1,0s0,0-.1,0Z"/>
          <path class="cls-1" d="M9.9,30c-.1.1-.3.2-.5.2h-.4v.8h-.3v-2h.7c.2,0,.4,0,.5.2s.2.3.2.4,0,.3-.2.4ZM9.7,29.8c0,0,.1-.2.1-.3,0-.3-.1-.4-.4-.4h-.4v.7h.4c.1,0,.3,0,.3,0Z"/>
          <path class="cls-1" d="M10.6,31c0,0-.2-.1-.2-.2,0,0,0-.2,0-.3h.3c0,0,0,.1.1.2,0,0,.2,0,.3,0s.2,0,.2,0c0,0,0-.1,0-.2s0-.1,0-.2c0,0-.2,0-.3-.1-.1,0-.2,0-.3,0,0,0-.1,0-.2-.1,0,0,0-.1,0-.2s0-.2,0-.2.1-.1.2-.2c0,0,.2,0,.3,0,.2,0,.3,0,.4.1.1,0,.2.2.2.4h-.3c0,0,0-.2-.1-.2,0,0-.1,0-.2,0s-.2,0-.2,0c0,0,0,0,0,.2s0,0,0,.1c0,0,0,0,.1,0,0,0,.1,0,.2,0,.1,0,.2,0,.3,0,0,0,.1,0,.2.1,0,0,0,.1,0,.2,0,0,0,.2,0,.2,0,0-.1.1-.2.2s-.2,0-.3,0-.2,0-.3,0Z"/>
          <path class="cls-1" d="M12.8,31l-.6-.7v.7h-.3v-2.2h.3v1.3l.6-.7h.4l-.8.8.8.8h-.4Z"/>
          <path class="cls-1" d="M13.4,31s0,0,0-.1,0,0,0-.1c0,0,0,0,.1,0s0,0,.1,0c0,0,0,0,0,.1s0,0,0,.1c0,0,0,0-.1,0s0,0-.1,0Z"/>
          <path class="cls-1" d="M16.9,29v2h-.3v-1.5l-.7,1.5h-.2l-.7-1.5v1.5h-.3v-2h.3l.7,1.7.7-1.7h.3Z"/>
          <path class="cls-1" d="M18.7,29.4v1.6h-.3v-.2c0,0-.1.1-.2.2,0,0-.2,0-.3,0s-.2,0-.3,0-.2-.1-.2-.2c0-.1,0-.2,0-.4v-.9h.3v.9c0,.2,0,.3.1.4,0,0,.2.1.3.1s.3,0,.3-.1c0,0,.1-.2.1-.4v-.9h.3ZM17.7,29.1s0,0,0-.1,0,0,0-.1,0,0,.1,0,0,0,.1,0c0,0,0,0,0,.1s0,0,0,.1c0,0,0,0-.1,0s0,0-.1,0ZM18.2,29.1s0,0,0-.1,0,0,0-.1c0,0,0,0,.1,0s0,0,.1,0c0,0,0,0,0,.1s0,0,0,.1c0,0,0,0-.1,0s0,0-.1,0Z"/>
          <path class="cls-1" d="M19.7,29.5c.1,0,.2,0,.4,0s.3,0,.4.1.2.2.3.3c0,.1,0,.3,0,.4s0,.3,0,.4c0,.1-.2.2-.3.3-.1,0-.2.1-.4.1s-.3,0-.4,0c-.1,0-.2-.1-.2-.2v.3h-.3v-2.2h.3v.9c0,0,.1-.2.2-.2ZM20.5,29.9c0,0-.1-.2-.2-.2,0,0-.2,0-.3,0s-.2,0-.3,0c0,0-.1.1-.2.2,0,0,0,.2,0,.3s0,.2,0,.3c0,0,.1.2.2.2,0,0,.2,0,.3,0s.2,0,.3,0c0,0,.1-.1.2-.2,0,0,0-.2,0-.3s0-.2,0-.3Z"/>
          <path class="cls-1" d="M22.6,30.3h-1.3c0,.2,0,.3.2.4,0,0,.2.1.4.1s.2,0,.3,0,.1-.1.2-.2h.3c0,.2-.1.3-.3.4-.1,0-.3.1-.5.1s-.3,0-.4-.1-.2-.2-.3-.3c0-.1-.1-.3-.1-.4s0-.3,0-.4c0-.1.2-.2.3-.3s.3-.1.4-.1.3,0,.4,0,.2.2.3.3c0,.1,0,.2,0,.4s0,.1,0,.2ZM22.3,29.8c0,0-.1-.1-.2-.2,0,0-.2,0-.3,0-.1,0-.2,0-.3.1,0,0-.1.2-.2.4h1c0-.1,0-.2,0-.3Z"/>
          <path class="cls-1" d="M23.4,29.5c0,0,.2,0,.3,0v.3h0c-.3,0-.4.2-.4.5v.9h-.3v-1.6h.3v.3c0,0,.1-.2.2-.2Z"/>
          <path class="cls-1" d="M24.5,29.5c0,0,.2,0,.3,0v.3h0c-.3,0-.4.2-.4.5v.9h-.3v-1.6h.3v.3c0,0,.1-.2.2-.2Z"/>
          <path class="cls-1" d="M25.1,29.8c0-.1.2-.2.3-.3.1,0,.2-.1.4-.1s.3,0,.4,0c.1,0,.2.1.2.2v-.3h.3v1.6h-.3v-.3c0,0-.1.2-.2.2-.1,0-.2,0-.4,0s-.3,0-.4-.1c-.1,0-.2-.2-.3-.3,0-.1,0-.3,0-.4s0-.3,0-.4ZM26.3,29.9c0,0-.1-.2-.2-.2,0,0-.2,0-.3,0s-.2,0-.3,0c0,0-.1.1-.2.2s0,.2,0,.3,0,.2,0,.3c0,0,.1.2.2.2,0,0,.2,0,.3,0s.2,0,.3,0c0,0,.1-.1.2-.2,0,0,0-.2,0-.3s0-.2,0-.3Z"/>
          <path class="cls-1" d="M28.2,31c-.1,0-.2-.1-.2-.2,0,0,0-.2,0-.3h.3c0,0,0,.2.1.2,0,0,.2,0,.3,0s.2,0,.3,0c0,0,.1-.1.1-.2s0-.1,0-.2c0,0,0,0-.2-.1,0,0-.2,0-.3,0-.1,0-.2,0-.3-.1,0,0-.1,0-.2-.2,0,0,0-.2,0-.3s0-.2,0-.3c0,0,.1-.2.2-.2.1,0,.2,0,.4,0,.2,0,.3,0,.5.1.1,0,.2.2.2.4h-.3c0,0,0-.1-.1-.2,0,0-.2,0-.3,0s-.2,0-.3,0c0,0-.1.1-.1.2s0,.1,0,.2c0,0,0,0,.2.1,0,0,.1,0,.3,0,.1,0,.2,0,.3.1,0,0,.2,0,.2.2,0,0,0,.2,0,.3s0,.2,0,.3c0,0-.1.2-.2.2-.1,0-.2,0-.4,0s-.3,0-.4,0Z"/>
          <path class="cls-1" d="M30.8,30.6h-.9l-.2.5h-.3l.7-2h.3l.7,2h-.3l-.2-.5ZM30.7,30.3l-.4-1-.4,1h.7Z"/>
          <path class="cls-1" d="M32.8,30c0,0,.1.1.1.2,0,0,0,.1,0,.2s0,.2,0,.3c0,0-.1.1-.2.2-.1,0-.2,0-.4,0h-.8v-2h.7c.1,0,.3,0,.4,0,0,0,.2.1.2.2,0,0,0,.2,0,.3s0,.2,0,.3c0,0-.2.1-.3.2,0,0,.1,0,.2,0ZM31.8,29.8h.4c.1,0,.2,0,.3,0s.1-.1.1-.2,0-.2-.1-.2-.2,0-.3,0h-.4v.7ZM32.6,30.7c0,0,.1-.1.1-.3s0-.2-.1-.3c0,0-.2,0-.3,0h-.5v.7h.5c.1,0,.2,0,.3,0Z"/>
          <path class="cls-1" d="M33.6,29v1.3c0,.2,0,.3.1.4,0,0,.2.1.4.1s.3,0,.4-.1c0,0,.1-.2.1-.4v-1.3h.3v1.3c0,.2,0,.3-.1.4,0,.1-.2.2-.3.3-.1,0-.2,0-.4,0s-.3,0-.4,0c-.1,0-.2-.1-.3-.3,0-.1-.1-.3-.1-.4v-1.3h.3Z"/>
          <path class="cls-1" d="M36.9,31h-.3l-1.1-1.6v1.6h-.3v-2h.3l1.1,1.6v-1.6h.3v2Z"/>
          <path class="cls-1" d="M37.4,29.4c0-.2.2-.3.4-.4.2,0,.3-.1.5-.1s.4,0,.6.2c.2.1.3.3.4.5h-.3c0-.1-.1-.2-.2-.3-.1,0-.2,0-.4,0s-.3,0-.4,0c-.1,0-.2.2-.3.3,0,.1,0,.3,0,.4s0,.3,0,.4c0,.1.2.2.3.3.1,0,.2,0,.4,0s.3,0,.4,0c.1,0,.2-.2.2-.3h.3c0,.2-.2.3-.4.5-.2.1-.4.2-.6.2s-.4,0-.5-.1c-.2,0-.3-.2-.4-.4,0-.2-.1-.3-.1-.5s0-.4.1-.5Z"/>
          <path class="cls-1" d="M39.9,29v1.3c0,.2,0,.3.1.4,0,0,.2.1.4.1s.3,0,.4-.1c0,0,.1-.2.1-.4v-1.3h.3v1.3c0,.2,0,.3-.1.4,0,.1-.2.2-.3.3-.1,0-.2,0-.4,0s-.3,0-.4,0c-.1,0-.2-.1-.3-.3,0-.1-.1-.3-.1-.4v-1.3h.3Z"/>
        </g>
        <g>
          <path class="cls-1" d="M4.4,22.4c-.3.3-.9.5-1.6.5h-1.2v2.5h-.8v-6.1h2c.7,0,1.2.2,1.6.5s.5.8.5,1.3-.2.9-.5,1.3ZM3.8,22c.2-.2.3-.5.3-.8,0-.7-.4-1.1-1.3-1.1h-1.2v2.2h1.2c.4,0,.8,0,1-.3Z"/>
          <g>
            <path class="cls-1" d="M41.3,20.7v4.7h-.8v-4.7h.8Z"/>
            <path class="cls-1" d="M41.3,19.4v1.3l-.8-.5v-.8h.8Z"/>
          </g>
          <path class="cls-1" d="M6.8,25.3c-.3-.1-.6-.3-.7-.6-.2-.3-.3-.5-.3-.9h.8c0,.3.1.5.4.7.2.2.5.3.9.3s.7,0,.9-.3c.2-.2.3-.4.3-.7s0-.4-.2-.6c-.1-.1-.3-.3-.5-.3-.2,0-.4-.2-.8-.2-.4-.1-.7-.2-1-.3-.2-.1-.4-.3-.6-.5-.2-.2-.3-.5-.3-.9s0-.6.3-.9c.2-.3.4-.5.7-.6.3-.1.7-.2,1-.2.6,0,1,.1,1.4.4.4.3.6.7.6,1.1h-.9c0-.2-.2-.4-.4-.6-.2-.2-.5-.3-.9-.3s-.6,0-.8.3c-.2.2-.3.4-.3.7s0,.4.2.5c.1.1.3.2.5.3.2,0,.4.2.8.2.4.1.7.2,1,.3.2.1.5.3.6.5.2.2.3.5.3.9s0,.6-.2.8c-.2.3-.4.5-.7.6-.3.2-.7.2-1.1.2s-.8,0-1.1-.2Z"/>
          <g>
            <path class="cls-1" d="M11.8,20.7v4.7h-.8v-4.7h.8Z"/>
            <path class="cls-1" d="M11.8,19.4v1.3l-.8-.5v-.8h.8Z"/>
          </g>
          <path class="cls-1" d="M16.5,25.5l-2.5-2.8v2.8h-.8v-6.1h.8v2.8l2.5-2.8h1l-2.8,3,2.8,3h-1Z"/>
          <path class="cls-1" d="M19.6,25.1c-.5-.3-.8-.6-1.1-1.1-.3-.5-.4-1-.4-1.6s.1-1.1.4-1.6c.3-.5.6-.8,1.1-1.1.5-.3,1-.4,1.5-.4s1.1.1,1.5.4c.5.3.8.6,1.1,1.1.3.5.4,1,.4,1.6s-.1,1.1-.4,1.6c-.3.5-.6.8-1.1,1.1-.5.3-1,.4-1.5.4s-1.1-.1-1.5-.4ZM22.3,24.5c.3-.2.6-.5.8-.8.2-.4.3-.8.3-1.3s0-.9-.3-1.3c-.2-.4-.5-.6-.8-.8-.3-.2-.7-.3-1.1-.3s-.8,0-1.1.3c-.3.2-.6.5-.8.8-.2.4-.3.8-.3,1.3s0,.9.3,1.3c.2.4.5.6.8.8.3.2.7.3,1.1.3s.8,0,1.1-.3Z"/>
          <path class="cls-1" d="M26,24.8h2.1v.6h-2.9v-6.1h.8v5.4Z"/>
          <path class="cls-1" d="M30.2,25.1c-.5-.3-.8-.6-1.1-1.1-.3-.5-.4-1-.4-1.6s.1-1.1.4-1.6c.3-.5.6-.8,1.1-1.1.5-.3,1-.4,1.5-.4s1.1.1,1.5.4c.5.3.8.6,1.1,1.1.3.5.4,1,.4,1.6s-.1,1.1-.4,1.6c-.3.5-.6.8-1.1,1.1-.5.3-1,.4-1.5.4s-1.1-.1-1.5-.4ZM32.9,24.5c.3-.2.6-.5.8-.8.2-.4.3-.8.3-1.3s0-.9-.3-1.3c-.2-.4-.5-.6-.8-.8-.3-.2-.7-.3-1.1-.3s-.8,0-1.1.3c-.3.2-.6.5-.8.8-.2.4-.3.8-.3,1.3s0,.9.3,1.3c.2.4.5.6.8.8.3.2.7.3,1.1.3s.8,0,1.1-.3Z"/>
          <path class="cls-1" d="M38.9,19.4v4.5c0,.5-.2.9-.5,1.2-.3.3-.7.4-1.2.4s-.9-.2-1.2-.5c-.3-.3-.5-.7-.5-1.2h.8c0,.3,0,.5.2.7.1.2.4.3.7.3s.5,0,.7-.3c.1-.2.2-.4.2-.7v-4.5h.8Z"/>
        </g>
      </g>
    </g>
  </g>
</svg>