<?xml version="1.0" encoding="UTF-8"?>
<svg xmlns="http://www.w3.org/2000/svg" version="1.1" viewBox="0 0 56 56">
  <defs>
    <style>
      .cls-1 {
        fill: #fff;
      }
    </style>
  </defs>
  <!-- Generator: Adobe Illustrator 28.7.1, SVG Export Plug-In . SVG Version: 1.2.0 Build 142)  -->
  <g>
    <g id="katman_1">
      <g>
        <g>
          <path class="cls-1" d="M1.5,20.9c-.6-.4-.9-1.1-1-1.9h2.6c0,.4.2.7.6.7s.2,0,.3,0c0,0,.1-.2.1-.3s0-.3-.3-.4c-.2-.1-.5-.2-.9-.4-.5-.2-.9-.3-1.2-.5-.3-.2-.6-.4-.8-.7-.2-.3-.4-.7-.3-1.2,0-.5.1-.9.4-1.3.3-.4.6-.6,1.1-.8.5-.2,1-.3,1.5-.3,1,0,1.7.2,2.3.7.6.4.9,1.1.9,1.9h-2.6c0-.2,0-.4-.2-.5-.1,0-.2-.1-.4-.1s-.2,0-.3.1c0,0,0,.2,0,.3s0,.3.3.4c.2.1.5.3.9.4.5.2.9.4,1.2.5.3.2.6.4.8.7.2.3.4.7.4,1.1s-.1.9-.4,1.3c-.2.4-.6.7-1,.9-.4.2-1,.3-1.6.3-.9,0-1.7-.2-2.3-.7Z"/>
          <path class="cls-1" d="M12.7,20.3h-2.6l-.4,1.2h-2.6l2.9-7.8h2.8l2.9,7.8h-2.6l-.4-1.2ZM12.1,18.5l-.7-2.2-.7,2.2h1.4Z"/>
          <path class="cls-1" d="M22.5,18.2c.3.3.4.7.4,1.2,0,.7-.2,1.2-.7,1.6-.5.4-1.1.6-2,.6h-4.1v-7.8h4c.8,0,1.4.2,1.9.5.5.3.7.9.7,1.5s-.1.8-.4,1.2c-.2.3-.6.5-1,.6.5.1.8.3,1.1.7ZM18.6,16.7h1c.2,0,.4,0,.5-.1.1,0,.2-.2.2-.4s0-.3-.2-.4c-.1,0-.3-.1-.5-.1h-1v1.1ZM20.2,19.4c.1,0,.2-.2.2-.4,0-.4-.2-.6-.7-.6h-1.1v1.1h1.1c.2,0,.4,0,.5-.1Z"/>
          <path class="cls-1" d="M26.1,13.7v4.4c0,.4,0,.6.2.9.2.2.4.3.8.3s.6-.1.8-.3c.2-.2.3-.5.3-.9v-4.4h2.4v4.4c0,.7-.2,1.4-.5,1.9-.3.5-.7.9-1.3,1.2-.5.3-1.1.4-1.8.4s-1.3-.1-1.8-.4c-.5-.3-.9-.7-1.2-1.2-.3-.5-.4-1.2-.4-1.9v-4.4h2.4Z"/>
          <path class="cls-1" d="M39.2,21.5h-2.5l-2.6-3.9v3.9h-2.5v-7.8h2.5l2.6,4v-4h2.5v7.8Z"/>
          <path class="cls-1" d="M40.5,15.5c.3-.6.8-1.1,1.3-1.4.6-.3,1.3-.5,2.1-.5s1.3.1,1.8.4c.5.3,1,.6,1.3,1.1.3.5.6,1,.7,1.6h-2.6c-.1-.3-.3-.5-.5-.6-.2-.1-.5-.2-.7-.2-.4,0-.7.2-1,.5-.2.3-.4.7-.4,1.2s.1.9.4,1.2c.2.3.6.5,1,.5s.5,0,.7-.2c.2-.1.4-.3.5-.6h2.6c-.1.6-.3,1.2-.7,1.6-.3.5-.8.8-1.3,1.1-.5.3-1.1.4-1.8.4s-1.5-.2-2.1-.5c-.6-.3-1-.8-1.3-1.4-.3-.6-.5-1.3-.5-2.1s.2-1.5.5-2.1Z"/>
          <path class="cls-1" d="M51,13.7v4.4c0,.4,0,.6.2.9.2.2.4.3.8.3s.6-.1.8-.3c.2-.2.3-.5.3-.9v-4.4h2.4v4.4c0,.7-.2,1.4-.5,1.9-.3.5-.7.9-1.3,1.2-.5.3-1.1.4-1.8.4s-1.3-.1-1.8-.4c-.5-.3-.9-.7-1.2-1.2-.3-.5-.4-1.2-.4-1.9v-4.4h2.4Z"/>
        </g>
        <g>
          <path class="cls-1" d="M1,39.6v1.8c0,.2,0,.4.2.5.1.1.3.2.5.2s.4,0,.5-.2c.1-.1.2-.3.2-.5v-1.8h.4v1.7c0,.2,0,.4-.1.6,0,.2-.2.3-.4.4-.2,0-.3.1-.5.1s-.4,0-.5-.1c-.2,0-.3-.2-.4-.4,0-.2-.1-.4-.1-.6v-1.7h.4Z"/>
          <path class="cls-1" d="M3.6,42.1h1.1v.3h-1.5v-.3l1.1-1.6h-1v-.3h1.5v.3l-1.1,1.6Z"/>
          <path class="cls-1" d="M8.2,40.3c.1,0,.2.2.3.3,0,.1.1.3.1.5v1.3h-.4v-1.2c0-.2,0-.4-.2-.5-.1-.1-.3-.2-.4-.2s-.3,0-.4.2c-.1.1-.2.3-.2.5v1.2h-.4v-1.2c0-.2,0-.4-.2-.5-.1-.1-.3-.2-.4-.2s-.3,0-.4.2c-.1.1-.2.3-.2.5v1.2h-.4v-2.2h.4v.3c0-.1.2-.2.3-.3.1,0,.3,0,.4,0s.3,0,.5.1c.1,0,.2.2.3.4,0-.2.2-.3.3-.4.1,0,.3-.1.5-.1s.3,0,.5.1Z"/>
          <path class="cls-1" d="M9.2,42.4s0-.1,0-.2,0-.1,0-.2.1,0,.2,0,.1,0,.2,0c0,0,0,.1,0,.2s0,.1,0,.2c0,0-.1,0-.2,0s-.1,0-.2,0Z"/>
          <path class="cls-1" d="M12.7,41c-.2.2-.4.2-.7.2h-.5v1.2h-.4v-2.8h.9c.3,0,.6,0,.7.2s.2.3.2.6,0,.4-.2.6ZM12.5,40.8c0,0,.1-.2.1-.4,0-.3-.2-.5-.6-.5h-.5v1h.5c.2,0,.3,0,.4-.1Z"/>
          <path class="cls-1" d="M13.8,42.4c-.1,0-.2-.1-.3-.2,0-.1-.1-.2-.1-.4h.4c0,.1,0,.2.2.3,0,0,.2.1.4.1s.2,0,.3,0c0,0,.1-.1.1-.2s0-.2-.1-.2c0,0-.2,0-.4-.1-.2,0-.3,0-.4-.1-.1,0-.2-.1-.3-.2,0,0-.1-.2-.1-.3s0-.2,0-.3.2-.2.3-.2c.1,0,.3,0,.4,0,.2,0,.4,0,.6.2.1.1.2.3.2.5h-.4c0-.1,0-.2-.1-.3,0,0-.2-.1-.3-.1s-.2,0-.3,0c0,0-.1.1-.1.2s0,.1,0,.2c0,0,.1,0,.2.1,0,0,.2,0,.3,0,.2,0,.3,0,.4.1,0,0,.2.1.3.2,0,0,.1.2.1.3,0,.1,0,.2,0,.3,0,0-.2.2-.3.2s-.3,0-.4,0-.3,0-.4,0Z"/>
          <path class="cls-1" d="M16.7,42.4l-.9-1v1h-.4v-2.9h.4v1.7l.8-1h.5l-1,1.1,1,1.1h-.5Z"/>
          <path class="cls-1" d="M17.5,42.4s0-.1,0-.2,0-.1,0-.2c0,0,.1,0,.2,0s.1,0,.2,0c0,0,0,.1,0,.2s0,.1,0,.2c0,0-.1,0-.2,0s-.1,0-.2,0Z"/>
          <path class="cls-1" d="M22.3,39.6v2.8h-.4v-2.1l-.9,2.1h-.3l-.9-2.1v2.1h-.4v-2.8h.4l1,2.3,1-2.3h.4Z"/>
          <path class="cls-1" d="M24.8,40.2v2.2h-.4v-.3c0,.1-.2.2-.3.3-.1,0-.3,0-.4,0s-.3,0-.5-.1-.2-.2-.3-.3c0-.1-.1-.3-.1-.5v-1.3h.4v1.2c0,.2,0,.4.2.5.1.1.3.2.4.2s.3,0,.5-.2c.1-.1.2-.3.2-.5v-1.2h.4ZM23.4,39.9s0,0,0-.1,0-.1,0-.1,0,0,.1,0,.1,0,.1,0c0,0,0,0,0,.1s0,.1,0,.1c0,0,0,0-.1,0s-.1,0-.1,0ZM24,39.9s0,0,0-.1,0-.1,0-.1c0,0,0,0,.1,0s.1,0,.1,0c0,0,0,0,0,.1s0,.1,0,.1c0,0,0,0-.1,0s-.1,0-.1,0Z"/>
          <path class="cls-1" d="M26.1,40.3c.1,0,.3-.1.5-.1s.4,0,.5.1.3.2.4.4c0,.2.1.4.1.6s0,.4-.1.6c0,.2-.2.3-.4.4-.2,0-.3.1-.5.1s-.4,0-.5-.1c-.1,0-.2-.2-.3-.3v.4h-.4v-2.9h.4v1.2c0-.1.2-.2.3-.3ZM27.2,40.9c0-.1-.2-.2-.3-.3-.1,0-.2,0-.4,0s-.3,0-.4,0c-.1,0-.2.2-.3.3,0,.1-.1.3-.1.4s0,.3.1.4c0,.1.2.2.3.3.1,0,.2,0,.4,0s.3,0,.4,0c.1,0,.2-.2.3-.3,0-.1,0-.3,0-.4s0-.3,0-.4Z"/>
          <path class="cls-1" d="M30.1,41.4h-1.7c0,.2,0,.4.2.5.1.1.3.2.5.2s.3,0,.4-.1.2-.2.2-.3h.4c0,.2-.2.4-.3.5-.2.1-.4.2-.7.2s-.4,0-.6-.1-.3-.2-.4-.4c0-.2-.1-.4-.1-.6s0-.4.1-.6c0-.2.2-.3.4-.4s.4-.1.6-.1.4,0,.5.1.3.2.4.4c0,.2.1.3.1.5s0,.1,0,.2ZM29.6,40.8c0,0-.1-.2-.2-.2-.1,0-.2,0-.3,0-.2,0-.3,0-.5.2-.1.1-.2.3-.2.5h1.4c0-.1,0-.3,0-.4Z"/>
          <path class="cls-1" d="M31.2,40.3c.1,0,.3-.1.4-.1v.4h0c-.4,0-.6.2-.6.7v1.2h-.4v-2.2h.4v.4c0-.1.2-.2.3-.3Z"/>
          <path class="cls-1" d="M32.7,40.3c.1,0,.3-.1.4-.1v.4h0c-.4,0-.6.2-.6.7v1.2h-.4v-2.2h.4v.4c0-.1.2-.2.3-.3Z"/>
          <path class="cls-1" d="M33.5,40.7c0-.2.2-.3.4-.4.2,0,.3-.1.5-.1s.4,0,.5.1c.1,0,.2.2.3.3v-.4h.4v2.2h-.4v-.4c0,.1-.2.2-.3.3-.1,0-.3.1-.5.1s-.4,0-.5-.1c-.2,0-.3-.2-.4-.4,0-.2-.1-.4-.1-.6s0-.4.1-.6ZM35.1,40.9c0-.1-.2-.2-.3-.3-.1,0-.2,0-.4,0s-.3,0-.4,0c-.1,0-.2.2-.3.3s0,.3,0,.4,0,.3,0,.4c0,.1.2.2.3.3.1,0,.2,0,.4,0s.3,0,.4,0c.1,0,.2-.2.3-.3,0-.1,0-.3,0-.4s0-.3,0-.4Z"/>
          <path class="cls-1" d="M37.7,42.3c-.1,0-.3-.2-.3-.3,0-.1-.1-.2-.1-.4h.4c0,.1,0,.2.2.3,0,0,.2.1.4.1s.3,0,.4-.1c0,0,.1-.2.1-.3s0-.2,0-.3c0,0-.1-.1-.2-.2,0,0-.2,0-.4-.1-.2,0-.3,0-.4-.1-.1,0-.2-.1-.3-.2,0-.1-.1-.2-.1-.4s0-.3.1-.4c0-.1.2-.2.3-.3.1,0,.3,0,.5,0,.3,0,.5,0,.6.2.2.1.3.3.3.5h-.4c0-.1,0-.2-.2-.3,0,0-.2-.1-.4-.1s-.3,0-.4.1c0,0-.1.2-.1.3s0,.2,0,.2c0,0,.1.1.2.1,0,0,.2,0,.4.1.2,0,.3.1.4.1.1,0,.2.1.3.2,0,.1.1.2.1.4s0,.3-.1.4c0,.1-.2.2-.3.3-.1,0-.3.1-.5.1s-.3,0-.5,0Z"/>
          <path class="cls-1" d="M41.3,41.8h-1.2l-.2.6h-.4l1-2.8h.4l1,2.8h-.4l-.2-.6ZM41.2,41.5l-.5-1.4-.5,1.4h1Z"/>
          <path class="cls-1" d="M44,41.1c0,0,.1.1.2.2,0,0,0,.2,0,.3s0,.3-.1.4c0,.1-.2.2-.3.3-.1,0-.3,0-.5,0h-1v-2.8h1c.2,0,.3,0,.5,0,.1,0,.2.1.3.3,0,.1,0,.2,0,.4s0,.3-.1.4c0,.1-.2.2-.4.2.1,0,.2,0,.3.1ZM42.7,40.8h.6c.2,0,.3,0,.4-.1s.1-.2.1-.3,0-.3-.1-.3-.2-.1-.4-.1h-.6v.9ZM43.7,42c.1,0,.2-.2.2-.4s0-.3-.2-.4c-.1,0-.2-.1-.4-.1h-.6v1h.6c.2,0,.3,0,.4-.1Z"/>
          <path class="cls-1" d="M45.1,39.6v1.8c0,.2,0,.4.2.5.1.1.3.2.5.2s.4,0,.5-.2c.1-.1.2-.3.2-.5v-1.8h.4v1.7c0,.2,0,.4-.1.6,0,.2-.2.3-.4.4-.2,0-.3.1-.5.1s-.4,0-.5-.1c-.2,0-.3-.2-.4-.4,0-.2-.1-.4-.1-.6v-1.7h.4Z"/>
          <path class="cls-1" d="M49.6,42.4h-.4l-1.5-2.2v2.2h-.4v-2.8h.4l1.5,2.2v-2.2h.4v2.8Z"/>
          <path class="cls-1" d="M50.3,40.3c.1-.2.3-.4.5-.5.2-.1.4-.2.7-.2s.6,0,.8.2c.2.1.4.4.5.6h-.4c0-.2-.2-.3-.3-.4-.1,0-.3-.1-.5-.1s-.4,0-.5.1c-.2,0-.3.2-.4.4,0,.2-.1.4-.1.6s0,.4.1.6c0,.2.2.3.4.4.2,0,.3.1.5.1s.4,0,.5-.1c.1,0,.3-.2.3-.4h.4c-.1.3-.3.5-.5.6-.2.1-.5.2-.8.2s-.5,0-.7-.2c-.2-.1-.4-.3-.5-.5-.1-.2-.2-.5-.2-.7s0-.5.2-.7Z"/>
          <path class="cls-1" d="M53.6,39.6v1.8c0,.2,0,.4.2.5.1.1.3.2.5.2s.4,0,.5-.2c.1-.1.2-.3.2-.5v-1.8h.4v1.7c0,.2,0,.4-.1.6,0,.2-.2.3-.4.4-.2,0-.3.1-.5.1s-.4,0-.5-.1c-.2,0-.3-.2-.4-.4,0-.2-.1-.4-.1-.6v-1.7h.4Z"/>
        </g>
        <g>
          <path class="cls-1" d="M5.3,30.7c-.5.5-1.2.7-2.2.7h-1.6v3.5H.5v-8.3h2.7c.9,0,1.6.2,2.1.7s.7,1,.7,1.7-.2,1.3-.7,1.7ZM4.5,30.1c.3-.3.4-.6.4-1.1,0-1-.6-1.5-1.8-1.5h-1.6v3h1.6c.6,0,1-.1,1.3-.4Z"/>
          <g>
            <path class="cls-1" d="M55.5,28.4v6.4h-1.1v-6.4h1.1Z"/>
            <path class="cls-1" d="M55.5,26.6v1.8l-1.1-.7v-1.1h1.1Z"/>
          </g>
          <path class="cls-1" d="M8.5,34.7c-.4-.2-.8-.5-1-.8-.2-.3-.4-.7-.4-1.2h1.2c0,.4.2.7.5,1,.3.3.7.4,1.2.4s.9-.1,1.2-.4c.3-.3.4-.6.4-1s0-.6-.3-.8c-.2-.2-.4-.3-.7-.5-.3-.1-.6-.2-1.1-.3-.5-.1-1-.3-1.3-.4-.3-.1-.6-.4-.8-.7-.2-.3-.4-.7-.4-1.2s.1-.9.3-1.2c.2-.3.6-.6,1-.8.4-.2.9-.3,1.4-.3.8,0,1.4.2,1.9.6.5.4.8.9.8,1.5h-1.2c0-.3-.2-.6-.5-.8-.3-.2-.7-.4-1.2-.4s-.8.1-1.1.4c-.3.2-.4.6-.4,1s0,.5.3.7c.2.2.4.3.6.4.2,0,.6.2,1.1.3.5.2,1,.3,1.3.4.3.1.6.4.9.7.2.3.4.7.4,1.2s-.1.8-.3,1.1c-.2.4-.5.6-.9.9-.4.2-.9.3-1.5.3s-1,0-1.5-.3Z"/>
          <g>
            <path class="cls-1" d="M15.4,28.4v6.4h-1.1v-6.4h1.1Z"/>
            <path class="cls-1" d="M15.4,26.6v1.8l-1.1-.7v-1.1h1.1Z"/>
          </g>
          <path class="cls-1" d="M21.7,34.9l-3.4-3.8v3.8h-1.1v-8.3h1.1v3.8l3.4-3.8h1.4l-3.8,4.1,3.8,4.1h-1.4Z"/>
          <path class="cls-1" d="M26,34.4c-.6-.4-1.1-.9-1.5-1.5-.4-.6-.6-1.4-.6-2.2s.2-1.5.6-2.2c.4-.6.9-1.1,1.5-1.5.6-.4,1.3-.5,2.1-.5s1.5.2,2.1.5c.6.4,1.1.9,1.5,1.5.4.6.5,1.4.5,2.2s-.2,1.5-.5,2.2c-.4.6-.9,1.1-1.5,1.5-.6.4-1.3.5-2.1.5s-1.5-.2-2.1-.5ZM29.7,33.6c.5-.3.8-.7,1.1-1.2.3-.5.4-1.1.4-1.7s-.1-1.2-.4-1.7c-.3-.5-.6-.9-1.1-1.1-.5-.3-1-.4-1.6-.4s-1.1.1-1.6.4c-.5.3-.8.7-1.1,1.1-.3.5-.4,1.1-.4,1.7s.1,1.2.4,1.7c.3.5.6.9,1.1,1.2.5.3,1,.4,1.6.4s1.1-.1,1.6-.4Z"/>
          <path class="cls-1" d="M34.8,34h2.9v.9h-4v-8.3h1.1v7.4Z"/>
          <path class="cls-1" d="M40.5,34.4c-.6-.4-1.1-.9-1.5-1.5-.4-.6-.6-1.4-.6-2.2s.2-1.5.6-2.2c.4-.6.9-1.1,1.5-1.5.6-.4,1.3-.5,2.1-.5s1.5.2,2.1.5c.6.4,1.1.9,1.5,1.5.4.6.5,1.4.5,2.2s-.2,1.5-.5,2.2c-.4.6-.9,1.1-1.5,1.5-.6.4-1.3.5-2.1.5s-1.5-.2-2.1-.5ZM44.1,33.6c.5-.3.8-.7,1.1-1.2.3-.5.4-1.1.4-1.7s-.1-1.2-.4-1.7c-.3-.5-.6-.9-1.1-1.1-.5-.3-1-.4-1.6-.4s-1.1.1-1.6.4c-.5.3-.8.7-1.1,1.1-.3.5-.4,1.1-.4,1.7s.1,1.2.4,1.7c.3.5.6.9,1.1,1.2.5.3,1,.4,1.6.4s1.1-.1,1.6-.4Z"/>
          <path class="cls-1" d="M52.3,26.6v6.1c0,.7-.2,1.2-.6,1.6-.4.4-1,.6-1.7.6s-1.3-.2-1.7-.6c-.4-.4-.6-1-.6-1.7h1.1c0,.4.1.7.3,1,.2.3.5.4.9.4s.7-.1.9-.4c.2-.2.3-.5.3-.9v-6.1h1.1Z"/>
        </g>
      </g>
    </g>
  </g>
</svg>