<?xml version="1.0" encoding="UTF-8"?>
<svg xmlns="http://www.w3.org/2000/svg" version="1.1" viewBox="0 0 54 54">
  <defs>
    <style>
      .cls-1 {
        fill: #fff;
      }
    </style>
  </defs>
  <!-- Generator: Adobe Illustrator 28.7.1, SVG Export Plug-In . SVG Version: 1.2.0 Build 142)  -->
  <g>
    <g id="katman_1">
      <g>
        <g>
          <path class="cls-1" d="M2,20.4c-.6-.4-.9-1-.9-1.8h2.5c0,.4.2.6.6.6s.2,0,.3,0c0,0,.1-.2.1-.3s0-.3-.3-.4c-.2-.1-.5-.2-.9-.4-.5-.2-.9-.3-1.2-.5-.3-.2-.6-.4-.8-.7-.2-.3-.3-.7-.3-1.2,0-.5.1-.9.4-1.2.2-.3.6-.6,1-.8.4-.2.9-.3,1.4-.3.9,0,1.6.2,2.1.6.5.4.8,1,.8,1.8h-2.5c0-.2,0-.4-.2-.4,0,0-.2-.1-.4-.1s-.2,0-.2,0c0,0,0,.2,0,.3s0,.3.3.4c.2.1.5.2.9.4.5.2.8.3,1.1.5.3.2.6.4.8.7.2.3.3.6.3,1.1s-.1.9-.3,1.2c-.2.4-.5.6-1,.8-.4.2-.9.3-1.5.3-.9,0-1.6-.2-2.2-.6Z"/>
          <path class="cls-1" d="M12.6,19.8h-2.5l-.4,1.1h-2.4l2.7-7.4h2.7l2.7,7.4h-2.4l-.4-1.1ZM12,18l-.7-2.1-.7,2.1h1.3Z"/>
          <path class="cls-1" d="M21.8,17.8c.2.3.4.7.4,1.1,0,.6-.2,1.1-.6,1.5-.4.4-1,.5-1.8.5h-3.9v-7.4h3.8c.7,0,1.3.2,1.8.5.4.3.6.8.6,1.4s-.1.8-.3,1.1c-.2.3-.5.5-.9.6.4.1.8.3,1,.6ZM18.2,16.4h.9c.2,0,.4,0,.5-.1.1,0,.2-.2.2-.4s0-.3-.2-.4c-.1,0-.3-.1-.5-.1h-.9v1ZM19.7,18.9c.1,0,.2-.2.2-.4,0-.4-.2-.5-.6-.5h-1.1v1h1.1c.2,0,.4,0,.5-.1Z"/>
          <path class="cls-1" d="M25.3,13.5v4.2c0,.3,0,.6.2.8.1.2.4.3.7.3s.6,0,.7-.3c.2-.2.2-.5.2-.8v-4.2h2.3v4.2c0,.7-.1,1.3-.4,1.8-.3.5-.7.9-1.2,1.1-.5.2-1.1.4-1.7.4s-1.2-.1-1.7-.4c-.5-.2-.9-.6-1.1-1.1-.3-.5-.4-1.1-.4-1.8v-4.2h2.3Z"/>
          <path class="cls-1" d="M37.5,20.9h-2.3l-2.4-3.7v3.7h-2.3v-7.4h2.3l2.4,3.8v-3.8h2.3v7.4Z"/>
          <path class="cls-1" d="M38.8,15.3c.3-.6.7-1,1.3-1.3.5-.3,1.2-.5,1.9-.5s1.2.1,1.7.4c.5.2.9.6,1.2,1,.3.4.5.9.6,1.5h-2.4c-.1-.2-.3-.4-.5-.6-.2-.1-.4-.2-.7-.2-.4,0-.7.1-.9.4-.2.3-.3.7-.3,1.2s.1.9.3,1.2c.2.3.5.4.9.4s.5,0,.7-.2c.2-.1.4-.3.5-.6h2.4c-.1.6-.3,1.1-.6,1.5-.3.4-.7.8-1.2,1-.5.2-1.1.4-1.7.4s-1.4-.2-1.9-.5c-.5-.3-1-.8-1.3-1.3-.3-.6-.4-1.2-.4-1.9s.1-1.4.4-1.9Z"/>
          <path class="cls-1" d="M48.7,13.5v4.2c0,.3,0,.6.2.8.1.2.4.3.7.3s.6,0,.7-.3c.2-.2.2-.5.2-.8v-4.2h2.3v4.2c0,.7-.1,1.3-.4,1.8-.3.5-.7.9-1.2,1.1-.5.2-1.1.4-1.7.4s-1.2-.1-1.7-.4c-.5-.2-.9-.6-1.1-1.1-.3-.5-.4-1.1-.4-1.8v-4.2h2.3Z"/>
        </g>
        <g>
          <path class="cls-1" d="M1.6,37.9v1.7c0,.2,0,.4.2.5.1.1.3.2.5.2s.4,0,.5-.2c.1-.1.2-.3.2-.5v-1.7h.3v1.6c0,.2,0,.4-.1.5,0,.1-.2.3-.4.3-.1,0-.3.1-.5.1s-.4,0-.5-.1c-.1,0-.3-.2-.4-.3,0-.1-.1-.3-.1-.5v-1.6h.3Z"/>
          <path class="cls-1" d="M4,40.3h1v.3h-1.4v-.3l1-1.5h-1v-.3h1.4v.3l-1,1.5Z"/>
          <path class="cls-1" d="M8.4,38.6c.1,0,.2.2.3.3,0,.1.1.3.1.5v1.2h-.3v-1.2c0-.2,0-.4-.2-.5-.1-.1-.2-.2-.4-.2s-.3,0-.4.2c-.1.1-.2.3-.2.5v1.1h-.3v-1.2c0-.2,0-.4-.2-.5-.1-.1-.2-.2-.4-.2s-.3,0-.4.2c-.1.1-.2.3-.2.5v1.1h-.3v-2.1h.3v.3c0-.1.2-.2.3-.2.1,0,.2,0,.4,0s.3,0,.5.1c.1,0,.2.2.3.3,0-.1.2-.3.3-.3.1,0,.3-.1.4-.1s.3,0,.4,0Z"/>
          <path class="cls-1" d="M9.3,40.5s0,0,0-.2,0-.1,0-.2,0,0,.2,0,.1,0,.2,0c0,0,0,0,0,.2s0,.1,0,.2c0,0,0,0-.2,0s-.1,0-.2,0Z"/>
          <path class="cls-1" d="M12.6,39.3c-.1.1-.4.2-.7.2h-.5v1.1h-.3v-2.6h.8c.3,0,.5,0,.7.2s.2.3.2.6,0,.4-.2.5ZM12.4,39.1c0,0,.1-.2.1-.4,0-.3-.2-.5-.6-.5h-.5v1h.5c.2,0,.3,0,.4-.1Z"/>
          <path class="cls-1" d="M13.6,40.5c-.1,0-.2-.1-.3-.2,0,0-.1-.2-.1-.3h.4c0,.1,0,.2.1.3,0,0,.2,0,.3,0s.2,0,.3,0c0,0,.1-.1.1-.2s0-.2-.1-.2c0,0-.2,0-.4-.1-.2,0-.3,0-.4-.1,0,0-.2-.1-.2-.2,0,0-.1-.2-.1-.3s0-.2,0-.3.2-.2.3-.2c.1,0,.2,0,.4,0,.2,0,.4,0,.6.2.1.1.2.3.2.5h-.3c0-.1,0-.2-.1-.3,0,0-.2,0-.3,0s-.2,0-.3,0c0,0-.1.1-.1.2s0,.1,0,.2c0,0,0,0,.2.1,0,0,.2,0,.3,0,.1,0,.3,0,.4.1,0,0,.2,0,.2.2,0,0,.1.2.1.3,0,.1,0,.2,0,.3,0,0-.2.2-.3.2s-.2,0-.4,0-.3,0-.4,0Z"/>
          <path class="cls-1" d="M16.4,40.6l-.8-.9v.9h-.3v-2.8h.3v1.6l.8-.9h.5l-1,1,1,1h-.5Z"/>
          <path class="cls-1" d="M17.1,40.5s0,0,0-.2,0-.1,0-.2c0,0,0,0,.2,0s.1,0,.2,0c0,0,0,0,0,.2s0,.1,0,.2c0,0,0,0-.2,0s-.1,0-.2,0Z"/>
          <path class="cls-1" d="M21.6,38v2.6h-.3v-1.9l-.9,1.9h-.2l-.9-1.9v1.9h-.3v-2.6h.4l1,2.1,1-2.1h.4Z"/>
          <path class="cls-1" d="M24,38.5v2.1h-.3v-.3c0,.1-.2.2-.3.2-.1,0-.2,0-.4,0s-.3,0-.4,0-.2-.2-.3-.3c0-.1-.1-.3-.1-.5v-1.2h.3v1.2c0,.2,0,.4.2.5.1.1.2.2.4.2s.3,0,.4-.2c.1-.1.2-.3.2-.5v-1.1h.3ZM22.6,38.2s0,0,0-.1,0-.1,0-.1,0,0,.1,0,0,0,.1,0c0,0,0,0,0,.1s0,.1,0,.1c0,0,0,0-.1,0s-.1,0-.1,0ZM23.3,38.2s0,0,0-.1,0-.1,0-.1c0,0,0,0,.1,0s.1,0,.1,0c0,0,0,0,0,.1s0,.1,0,.1c0,0,0,0-.1,0s-.1,0-.1,0Z"/>
          <path class="cls-1" d="M25.2,38.6c.1,0,.3-.1.5-.1s.4,0,.5.1.3.2.3.4c0,.2.1.3.1.6s0,.4-.1.6c0,.2-.2.3-.4.4-.1,0-.3.1-.5.1s-.3,0-.5-.1c-.1,0-.2-.2-.3-.3v.4h-.3v-2.8h.3v1.1c0-.1.2-.2.3-.3ZM26.2,39.1c0-.1-.1-.2-.3-.3-.1,0-.2,0-.4,0s-.2,0-.3,0c-.1,0-.2.1-.3.3,0,.1,0,.3,0,.4s0,.3,0,.4c0,.1.1.2.3.3.1,0,.2,0,.3,0s.2,0,.4,0c.1,0,.2-.1.3-.3,0-.1,0-.3,0-.4s0-.3,0-.4Z"/>
          <path class="cls-1" d="M29,39.7h-1.6c0,.2,0,.4.2.5.1.1.3.2.5.2s.3,0,.4-.1.2-.2.2-.3h.4c0,.2-.2.4-.3.5-.2.1-.4.2-.6.2s-.4,0-.5-.1-.3-.2-.4-.4c0-.2-.1-.3-.1-.6s0-.4.1-.6c0-.2.2-.3.4-.4s.3-.1.5-.1.4,0,.5.1.3.2.3.4c0,.1.1.3.1.5s0,.1,0,.2ZM28.5,39c0,0-.1-.2-.2-.2,0,0-.2,0-.3,0-.2,0-.3,0-.4.2-.1.1-.2.3-.2.5h1.3c0-.1,0-.2,0-.3Z"/>
          <path class="cls-1" d="M30,38.6c.1,0,.2,0,.4,0v.4h0c-.4,0-.6.2-.6.6v1.1h-.3v-2.1h.3v.3c0-.1.1-.2.3-.3Z"/>
          <path class="cls-1" d="M31.4,38.6c.1,0,.2,0,.4,0v.4h0c-.4,0-.6.2-.6.6v1.1h-.3v-2.1h.3v.3c0-.1.1-.2.3-.3Z"/>
          <path class="cls-1" d="M32.2,39c0-.2.2-.3.4-.4.1,0,.3-.1.5-.1s.3,0,.5.1c.1,0,.2.2.3.3v-.4h.3v2.1h-.3v-.4c0,.1-.2.2-.3.3-.1,0-.3.1-.5.1s-.3,0-.5-.1c-.1,0-.3-.2-.3-.4,0-.2-.1-.3-.1-.6s0-.4.1-.6ZM33.7,39.1c0-.1-.1-.2-.3-.3-.1,0-.2,0-.4,0s-.2,0-.3,0c-.1,0-.2.1-.3.3s0,.2,0,.4,0,.3,0,.4c0,.1.1.2.3.3.1,0,.2,0,.3,0s.2,0,.4,0c.1,0,.2-.1.3-.3,0-.1,0-.3,0-.4s0-.3,0-.4Z"/>
          <path class="cls-1" d="M36.1,40.5c-.1,0-.2-.1-.3-.3,0-.1-.1-.2-.1-.4h.4c0,.1,0,.2.2.3,0,0,.2.1.4.1s.3,0,.4-.1c0,0,.1-.2.1-.3s0-.2,0-.2c0,0-.1-.1-.2-.1,0,0-.2,0-.3-.1-.2,0-.3,0-.4-.1-.1,0-.2-.1-.3-.2,0,0-.1-.2-.1-.4s0-.3.1-.4c0-.1.2-.2.3-.3.1,0,.3,0,.5,0,.2,0,.4,0,.6.2.2.1.2.3.3.5h-.4c0,0,0-.2-.2-.3,0,0-.2-.1-.4-.1s-.3,0-.3.1c0,0-.1.2-.1.3s0,.2,0,.2c0,0,.1.1.2.1,0,0,.2,0,.3.1.2,0,.3,0,.4.1.1,0,.2.1.3.2,0,0,.1.2.1.4s0,.2-.1.4c0,.1-.2.2-.3.3-.1,0-.3.1-.5.1s-.3,0-.5,0Z"/>
          <path class="cls-1" d="M39.5,40h-1.1l-.2.6h-.4l.9-2.6h.4l.9,2.6h-.4l-.2-.6ZM39.4,39.7l-.5-1.3-.5,1.3h.9Z"/>
          <path class="cls-1" d="M42,39.3c0,0,.1.1.2.2,0,0,0,.2,0,.3s0,.3-.1.4c0,.1-.2.2-.3.3-.1,0-.3,0-.5,0h-1v-2.6h.9c.2,0,.3,0,.5,0,.1,0,.2.1.3.2,0,0,0,.2,0,.3s0,.3-.1.4c0,.1-.2.2-.3.2,0,0,.2,0,.3.1ZM40.8,39.1h.6c.2,0,.3,0,.4-.1s.1-.2.1-.3,0-.2-.1-.3-.2-.1-.4-.1h-.6v.8ZM41.8,40.2c0,0,.1-.2.1-.3s0-.3-.1-.3c0,0-.2-.1-.4-.1h-.6v.9h.6c.2,0,.3,0,.4-.1Z"/>
          <path class="cls-1" d="M43.1,37.9v1.7c0,.2,0,.4.2.5.1.1.3.2.5.2s.4,0,.5-.2c.1-.1.2-.3.2-.5v-1.7h.3v1.6c0,.2,0,.4-.1.5,0,.1-.2.3-.4.3-.1,0-.3.1-.5.1s-.4,0-.5-.1c-.1,0-.3-.2-.4-.3,0-.1-.1-.3-.1-.5v-1.6h.3Z"/>
          <path class="cls-1" d="M47.3,40.6h-.3l-1.4-2.1v2.1h-.3v-2.6h.3l1.4,2.1v-2.1h.3v2.6Z"/>
          <path class="cls-1" d="M48,38.6c.1-.2.3-.4.5-.5.2-.1.4-.2.7-.2s.5,0,.7.2c.2.1.4.3.5.6h-.4c0-.2-.2-.3-.3-.4-.1,0-.3-.1-.5-.1s-.3,0-.5.1c-.1,0-.3.2-.3.4,0,.2-.1.3-.1.5s0,.4.1.5c0,.2.2.3.3.4.1,0,.3.1.5.1s.4,0,.5-.1c.1,0,.2-.2.3-.4h.4c0,.2-.3.4-.5.6-.2.1-.5.2-.7.2s-.5,0-.7-.2c-.2-.1-.4-.3-.5-.5-.1-.2-.2-.4-.2-.7s0-.5.2-.7Z"/>
          <path class="cls-1" d="M51.1,37.9v1.7c0,.2,0,.4.2.5.1.1.3.2.5.2s.4,0,.5-.2c.1-.1.2-.3.2-.5v-1.7h.3v1.6c0,.2,0,.4-.1.5,0,.1-.2.3-.4.3-.1,0-.3.1-.5.1s-.4,0-.5-.1c-.1,0-.3-.2-.4-.3,0-.1-.1-.3-.1-.5v-1.6h.3Z"/>
        </g>
        <g>
          <path class="cls-1" d="M5.6,29.6c-.4.4-1.1.6-2,.6h-1.5v3.3h-1v-7.8h2.5c.9,0,1.5.2,2,.6s.7,1,.7,1.6-.2,1.2-.7,1.6ZM4.9,29c.3-.2.4-.6.4-1.1,0-1-.6-1.4-1.7-1.4h-1.5v2.9h1.5c.6,0,1-.1,1.3-.4Z"/>
          <g>
            <path class="cls-1" d="M52.9,27.4v6.1h-1v-6.1h1Z"/>
            <path class="cls-1" d="M52.9,25.7v1.7l-1-.7v-1h1Z"/>
          </g>
          <path class="cls-1" d="M8.7,33.3c-.4-.2-.7-.4-1-.8-.2-.3-.4-.7-.4-1.1h1.1c0,.4.2.7.5.9.3.2.6.4,1.2.4s.9-.1,1.1-.4c.3-.2.4-.6.4-.9s0-.5-.2-.7c-.2-.2-.4-.3-.6-.4-.2,0-.6-.2-1-.3-.5-.1-.9-.3-1.2-.4-.3-.1-.6-.3-.8-.6-.2-.3-.3-.7-.3-1.2s.1-.8.3-1.1c.2-.3.5-.6.9-.8.4-.2.8-.3,1.3-.3.7,0,1.3.2,1.8.5.5.4.7.8.8,1.5h-1.1c0-.3-.2-.6-.5-.8-.3-.2-.6-.3-1.1-.3s-.8.1-1,.3c-.3.2-.4.5-.4.9s0,.5.2.7c.2.2.4.3.6.4.2,0,.6.2,1,.3.5.1.9.3,1.2.4.3.1.6.4.8.6.2.3.3.7.3,1.2s-.1.7-.3,1.1c-.2.3-.5.6-.9.8-.4.2-.9.3-1.4.3s-1,0-1.4-.3Z"/>
          <g>
            <path class="cls-1" d="M15.1,27.4v6.1h-1v-6.1h1Z"/>
            <path class="cls-1" d="M15.1,25.7v1.7l-1-.7v-1h1Z"/>
          </g>
          <path class="cls-1" d="M21.1,33.5l-3.2-3.6v3.6h-1v-7.8h1v3.6l3.2-3.6h1.3l-3.5,3.9,3.6,3.9h-1.3Z"/>
          <path class="cls-1" d="M25.1,33c-.6-.3-1.1-.8-1.4-1.4-.3-.6-.5-1.3-.5-2.1s.2-1.4.5-2.1c.3-.6.8-1.1,1.4-1.4.6-.3,1.3-.5,2-.5s1.4.2,2,.5c.6.3,1.1.8,1.4,1.4.3.6.5,1.3.5,2.1s-.2,1.5-.5,2.1c-.3.6-.8,1.1-1.4,1.4-.6.3-1.3.5-2,.5s-1.4-.2-2-.5ZM28.6,32.3c.4-.3.8-.6,1-1.1.2-.5.4-1,.4-1.6s-.1-1.2-.4-1.6c-.2-.5-.6-.8-1-1.1-.4-.3-.9-.4-1.5-.4s-1,.1-1.5.4c-.4.3-.8.6-1,1.1-.2.5-.4,1-.4,1.6s.1,1.2.4,1.6c.2.5.6.8,1,1.1.4.3.9.4,1.5.4s1-.1,1.5-.4Z"/>
          <path class="cls-1" d="M33.4,32.6h2.7v.8h-3.7v-7.8h1v7Z"/>
          <path class="cls-1" d="M38.7,33c-.6-.3-1.1-.8-1.4-1.4-.3-.6-.5-1.3-.5-2.1s.2-1.4.5-2.1c.3-.6.8-1.1,1.4-1.4.6-.3,1.3-.5,2-.5s1.4.2,2,.5c.6.3,1.1.8,1.4,1.4.3.6.5,1.3.5,2.1s-.2,1.5-.5,2.1c-.3.6-.8,1.1-1.4,1.4-.6.3-1.3.5-2,.5s-1.4-.2-2-.5ZM42.2,32.3c.4-.3.8-.6,1-1.1.2-.5.4-1,.4-1.6s-.1-1.2-.4-1.6c-.2-.5-.6-.8-1-1.1-.4-.3-.9-.4-1.5-.4s-1,.1-1.5.4c-.4.3-.8.6-1,1.1-.2.5-.4,1-.4,1.6s.1,1.2.4,1.6c.2.5.6.8,1,1.1.4.3.9.4,1.5.4s1-.1,1.5-.4Z"/>
          <path class="cls-1" d="M49.9,25.7v5.8c0,.6-.2,1.2-.6,1.5-.4.4-.9.6-1.6.6s-1.2-.2-1.6-.6c-.4-.4-.6-.9-.6-1.6h1c0,.4.1.7.3.9.2.2.5.4.9.4s.7-.1.8-.3c.2-.2.3-.5.3-.9v-5.8h1Z"/>
        </g>
      </g>
    </g>
  </g>
</svg>