<?xml version="1.0" encoding="UTF-8"?>
<svg xmlns="http://www.w3.org/2000/svg" version="1.1" viewBox="0 0 29 31">
  <defs>
    <style>
      .cls-1 {
        fill: #fff;
      }
    </style>
  </defs>
  <!-- Generator: Adobe Illustrator 28.7.1, SVG Export Plug-In . SVG Version: 1.2.0 Build 142)  -->
  <g>
    <g id="katman_1">
      <path class="cls-1" d="M6,.9l-1.5,8.1v4.4h.3c.4,2.5,1.8,4.6,3.8,5.9-4.6,1.9-7.8,6.3-7.8,11.6h2.5c0-3.2,1.5-6,3.8-7.8v.8l6.2,6.2,6.2-6.2v-.8c2.3,1.8,3.8,4.6,3.8,7.8h2.5c0-5.2-3.2-9.7-7.8-11.6,2-1.3,3.4-3.4,3.8-5.9h.3v-4.4l-1.5-8.1H6ZM25.8.9v10h2.5V.9h-2.5ZM8.1,3.4h10.4l1,5.9v1.6H7.1v-1.6l1-5.9ZM7.3,13.4h12c-.6,2.8-3,5-6,5s-5.4-2.2-6-5ZM25.8,13.4v2.5h2.5v-2.5h-2.5ZM13.3,20.9c1.3,0,2.6.3,3.8.7v1.3l-3.8,3.8-3.7-3.8v-1.3c1.2-.5,2.4-.7,3.7-.7Z"/>
    </g>
  </g>
</svg>