<?xml version="1.0" encoding="UTF-8"?>
<svg xmlns="http://www.w3.org/2000/svg" version="1.1" viewBox="0 0 32 31">
  <defs>
    <style>
      .cls-1 {
        fill: #9d7298;
      }
    </style>
  </defs>
  <!-- Generator: Adobe Illustrator 28.7.1, SVG Export Plug-In . SVG Version: 1.2.0 Build 142)  -->
  <g>
    <g id="katman_1">
      <g>
        <g>
          <path class="cls-1" d="M1.4,12c-.3-.2-.5-.6-.5-1.1h1.4c0,.2.1.4.3.4s.1,0,.2,0c0,0,0,0,0-.2s0-.2-.2-.2c-.1,0-.3-.1-.5-.2-.3,0-.5-.2-.7-.3-.2,0-.3-.2-.5-.4-.1-.2-.2-.4-.2-.7,0-.3,0-.5.2-.7.1-.2.3-.3.6-.4.3-.1.5-.2.8-.2.5,0,1,.1,1.3.4.3.2.5.6.5,1h-1.5c0-.1,0-.2,0-.3,0,0-.1,0-.2,0s-.1,0-.1,0c0,0,0,0,0,.2s0,.2.2.2c.1,0,.3.1.5.2.3.1.5.2.7.3.2,0,.3.2.5.4.1.2.2.4.2.6s0,.5-.2.7c-.1.2-.3.4-.6.5-.2.1-.5.2-.9.2-.5,0-.9-.1-1.3-.4Z"/>
          <path class="cls-1" d="M7.6,11.6h-1.4l-.2.7h-1.4l1.6-4.3h1.6l1.6,4.3h-1.4l-.2-.7ZM7.3,10.6l-.4-1.2-.4,1.2h.8Z"/>
          <path class="cls-1" d="M13,10.4c.1.2.2.4.2.7,0,.4-.1.7-.4.9-.3.2-.6.3-1.1.3h-2.3v-4.3h2.2c.4,0,.8,0,1,.3.3.2.4.5.4.8s0,.5-.2.6c-.1.2-.3.3-.5.3.3,0,.5.2.6.4ZM10.9,9.6h.5c.1,0,.2,0,.3,0,0,0,0-.1,0-.2s0-.2,0-.2c0,0-.1,0-.3,0h-.5v.6ZM11.8,11.1c0,0,0-.1,0-.2,0-.2-.1-.3-.4-.3h-.6v.6h.6c.1,0,.2,0,.3,0Z"/>
          <path class="cls-1" d="M15,7.9v2.4c0,.2,0,.4.1.5,0,.1.2.2.4.2s.3,0,.4-.2c0-.1.1-.3.1-.5v-2.4h1.4v2.4c0,.4,0,.8-.3,1.1-.2.3-.4.5-.7.7-.3.1-.6.2-1,.2s-.7,0-1-.2c-.3-.1-.5-.4-.7-.7-.2-.3-.2-.6-.2-1.1v-2.4h1.4Z"/>
          <path class="cls-1" d="M22.3,12.3h-1.4l-1.4-2.2v2.2h-1.4v-4.3h1.4l1.4,2.2v-2.2h1.4v4.3Z"/>
          <path class="cls-1" d="M23,9c.2-.3.4-.6.7-.8.3-.2.7-.3,1.1-.3s.7,0,1,.2c.3.1.5.3.7.6.2.3.3.6.4.9h-1.4c0-.1-.2-.3-.3-.3-.1,0-.3-.1-.4-.1-.2,0-.4,0-.5.3-.1.2-.2.4-.2.7s0,.5.2.7c.1.2.3.3.5.3s.3,0,.4-.1c.1,0,.2-.2.3-.3h1.4c0,.3-.2.6-.4.9-.2.3-.4.5-.7.6-.3.1-.6.2-1,.2s-.8,0-1.1-.3c-.3-.2-.6-.4-.7-.8-.2-.3-.3-.7-.3-1.1s0-.8.3-1.1Z"/>
          <path class="cls-1" d="M28.8,7.9v2.4c0,.2,0,.4.1.5,0,.1.2.2.4.2s.3,0,.4-.2c0-.1.1-.3.1-.5v-2.4h1.4v2.4c0,.4,0,.8-.3,1.1-.2.3-.4.5-.7.7-.3.1-.6.2-1,.2s-.7,0-1-.2c-.3-.1-.5-.4-.7-.7-.2-.3-.2-.6-.2-1.1v-2.4h1.4Z"/>
        </g>
        <g>
          <path class="cls-1" d="M1.1,22.3v1c0,.1,0,.2.1.3,0,0,.2,0,.3,0s.2,0,.3,0c0,0,.1-.2.1-.3v-1h.2v1c0,.1,0,.2,0,.3,0,0-.1.2-.2.2,0,0-.2,0-.3,0s-.2,0-.3,0c0,0-.2-.1-.2-.2,0,0,0-.2,0-.3v-1h.2Z"/>
          <path class="cls-1" d="M2.6,23.7h.6v.2h-.8v-.2l.6-.9h-.6v-.2h.8v.2l-.6.9Z"/>
          <path class="cls-1" d="M5.1,22.7c0,0,.1,0,.2.2,0,0,0,.2,0,.3v.7h-.2v-.7c0-.1,0-.2,0-.3,0,0-.1,0-.2,0s-.2,0-.2.1c0,0,0,.2,0,.3v.7h-.2v-.7c0-.1,0-.2,0-.3,0,0-.1,0-.2,0s-.2,0-.2.1c0,0,0,.2,0,.3v.7h-.2v-1.2h.2v.2c0,0,0-.1.2-.1,0,0,.1,0,.2,0s.2,0,.3,0c0,0,.1.1.2.2,0,0,0-.2.2-.2,0,0,.2,0,.3,0s.2,0,.3,0Z"/>
          <path class="cls-1" d="M5.6,23.8s0,0,0,0,0,0,0,0,0,0,0,0,0,0,0,0c0,0,0,0,0,0s0,0,0,0c0,0,0,0,0,0s0,0,0,0Z"/>
          <path class="cls-1" d="M7.6,23.1c0,0-.2.1-.4.1h-.3v.6h-.2v-1.5h.5c.2,0,.3,0,.4.1s.1.2.1.3,0,.2-.1.3ZM7.5,23c0,0,0-.1,0-.2,0-.2-.1-.3-.3-.3h-.3v.6h.3c.1,0,.2,0,.2,0Z"/>
          <path class="cls-1" d="M8.2,23.8c0,0-.1,0-.2-.1,0,0,0-.1,0-.2h.2c0,0,0,.1,0,.1,0,0,.1,0,.2,0s.1,0,.2,0c0,0,0,0,0-.1s0,0,0-.1c0,0-.1,0-.2,0,0,0-.2,0-.2,0,0,0-.1,0-.1-.1,0,0,0-.1,0-.2s0-.1,0-.2,0,0,.2-.1c0,0,.1,0,.2,0,.1,0,.2,0,.3.1,0,0,.1.2.1.3h-.2c0,0,0-.1,0-.2,0,0-.1,0-.2,0s-.1,0-.2,0c0,0,0,0,0,.1s0,0,0,0c0,0,0,0,0,0,0,0,0,0,.2,0,0,0,.2,0,.2,0,0,0,.1,0,.1.1,0,0,0,.1,0,.2,0,0,0,.1,0,.2,0,0,0,0-.2.1s-.1,0-.2,0-.2,0-.2,0Z"/>
          <path class="cls-1" d="M9.8,23.8l-.5-.5v.5h-.2v-1.6h.2v1l.5-.5h.3l-.6.6.6.6h-.3Z"/>
          <path class="cls-1" d="M10.3,23.8s0,0,0,0,0,0,0,0c0,0,0,0,0,0s0,0,0,0c0,0,0,0,0,0s0,0,0,0c0,0,0,0,0,0s0,0,0,0Z"/>
          <path class="cls-1" d="M12.9,22.3v1.5h-.2v-1.1l-.5,1.1h-.1l-.5-1.1v1.1h-.2v-1.5h.2l.6,1.3.6-1.3h.2Z"/>
          <path class="cls-1" d="M14.3,22.6v1.2h-.2v-.2c0,0,0,.1-.2.1,0,0-.1,0-.2,0s-.2,0-.3,0-.1,0-.2-.2c0,0,0-.2,0-.3v-.7h.2v.7c0,.1,0,.2,0,.3,0,0,.1,0,.2,0s.2,0,.3,0c0,0,0-.2,0-.3v-.7h.2ZM13.5,22.4s0,0,0,0,0,0,0,0,0,0,0,0,0,0,0,0c0,0,0,0,0,0s0,0,0,0c0,0,0,0,0,0s0,0,0,0ZM13.9,22.4s0,0,0,0,0,0,0,0c0,0,0,0,0,0s0,0,0,0c0,0,0,0,0,0s0,0,0,0c0,0,0,0,0,0s0,0,0,0Z"/>
          <path class="cls-1" d="M15,22.7c0,0,.2,0,.3,0s.2,0,.3,0,.2.1.2.2c0,0,0,.2,0,.3s0,.2,0,.3c0,0-.1.2-.2.2,0,0-.2,0-.3,0s-.2,0-.3,0c0,0-.1-.1-.2-.2v.2h-.2v-1.6h.2v.6c0,0,.1-.1.2-.2ZM15.6,23c0,0,0-.1-.1-.2,0,0-.1,0-.2,0s-.1,0-.2,0c0,0-.1,0-.1.2,0,0,0,.1,0,.2s0,.2,0,.2c0,0,0,.1.1.2,0,0,.1,0,.2,0s.1,0,.2,0c0,0,.1,0,.1-.2,0,0,0-.1,0-.2s0-.2,0-.2Z"/>
          <path class="cls-1" d="M17.2,23.3h-1c0,.1,0,.2.1.3,0,0,.2.1.3.1s.2,0,.2,0,0,0,.1-.2h.2c0,.1,0,.2-.2.3,0,0-.2.1-.4.1s-.2,0-.3,0-.2-.1-.2-.2c0,0,0-.2,0-.3s0-.2,0-.3c0,0,.1-.2.2-.2s.2,0,.3,0,.2,0,.3,0,.2.1.2.2c0,0,0,.2,0,.3s0,0,0,.1ZM17,22.9c0,0,0,0-.1-.1,0,0-.1,0-.2,0-.1,0-.2,0-.3,0,0,0-.1.2-.1.3h.8c0,0,0-.1,0-.2Z"/>
          <path class="cls-1" d="M17.9,22.7c0,0,.1,0,.2,0v.2h0c-.2,0-.3.1-.3.4v.7h-.2v-1.2h.2v.2c0,0,0-.1.2-.2Z"/>
          <path class="cls-1" d="M18.7,22.7c0,0,.1,0,.2,0v.2h0c-.2,0-.3.1-.3.4v.7h-.2v-1.2h.2v.2c0,0,0-.1.2-.2Z"/>
          <path class="cls-1" d="M19.1,22.9c0,0,.1-.2.2-.2,0,0,.2,0,.3,0s.2,0,.3,0c0,0,.1.1.2.2v-.2h.2v1.2h-.2v-.2c0,0,0,.1-.2.2,0,0-.2,0-.3,0s-.2,0-.3,0c0,0-.2-.1-.2-.2,0,0,0-.2,0-.3s0-.2,0-.3ZM20,23c0,0,0-.1-.1-.2,0,0-.1,0-.2,0s-.1,0-.2,0c0,0-.1,0-.1.2s0,.1,0,.2,0,.2,0,.2c0,0,0,.1.1.2,0,0,.1,0,.2,0s.1,0,.2,0c0,0,.1,0,.1-.2,0,0,0-.1,0-.2s0-.2,0-.2Z"/>
          <path class="cls-1" d="M21.4,23.8c0,0-.1,0-.2-.1,0,0,0-.1,0-.2h.2c0,0,0,.1,0,.2,0,0,.1,0,.2,0s.2,0,.2,0c0,0,0-.1,0-.2s0-.1,0-.1c0,0,0,0-.1,0,0,0-.1,0-.2,0-.1,0-.2,0-.2,0,0,0-.1,0-.2-.1,0,0,0-.1,0-.2s0-.2,0-.2c0,0,.1-.1.2-.1,0,0,.2,0,.3,0,.1,0,.3,0,.4.1,0,0,.1.2.2.3h-.2c0,0,0-.1,0-.2,0,0-.1,0-.2,0s-.2,0-.2,0c0,0,0,.1,0,.2s0,.1,0,.1c0,0,0,0,.1,0,0,0,.1,0,.2,0,.1,0,.2,0,.2,0,0,0,.1,0,.2.1,0,0,0,.1,0,.2s0,.1,0,.2c0,0,0,.1-.2.2,0,0-.2,0-.3,0s-.2,0-.3,0Z"/>
          <path class="cls-1" d="M23.4,23.5h-.7v.3h-.3l.6-1.5h.2l.6,1.5h-.2v-.3ZM23.4,23.3l-.3-.8-.3.8h.6Z"/>
          <path class="cls-1" d="M24.9,23.1s0,0,.1.1c0,0,0,.1,0,.2s0,.1,0,.2c0,0,0,.1-.2.1,0,0-.2,0-.3,0h-.6v-1.5h.6c.1,0,.2,0,.3,0,0,0,.1,0,.2.1,0,0,0,.1,0,.2s0,.2,0,.2c0,0-.1.1-.2.1,0,0,.1,0,.2,0ZM24.2,23h.3c0,0,.2,0,.2,0s0-.1,0-.2,0-.1,0-.2-.1,0-.2,0h-.3v.5ZM24.8,23.6c0,0,0-.1,0-.2s0-.2,0-.2c0,0-.1,0-.2,0h-.3v.5h.4c0,0,.2,0,.2,0Z"/>
          <path class="cls-1" d="M25.5,22.3v1c0,.1,0,.2.1.3,0,0,.2,0,.3,0s.2,0,.3,0c0,0,.1-.2.1-.3v-1h.2v1c0,.1,0,.2,0,.3,0,0-.1.2-.2.2,0,0-.2,0-.3,0s-.2,0-.3,0c0,0-.2-.1-.2-.2,0,0,0-.2,0-.3v-1h.2Z"/>
          <path class="cls-1" d="M28,23.8h-.2l-.8-1.2v1.2h-.2v-1.5h.2l.8,1.2v-1.2h.2v1.5Z"/>
          <path class="cls-1" d="M28.4,22.7c0-.1.2-.2.3-.3.1,0,.2-.1.4-.1s.3,0,.4.1c.1,0,.2.2.3.3h-.2c0,0-.1-.2-.2-.2,0,0-.2,0-.3,0s-.2,0-.3,0c0,0-.2.1-.2.2,0,0,0,.2,0,.3s0,.2,0,.3c0,0,.1.2.2.2,0,0,.2,0,.3,0s.2,0,.3,0c0,0,.1-.1.2-.2h.2c0,.1-.1.3-.3.3-.1,0-.3.1-.4.1s-.3,0-.4-.1c-.1,0-.2-.2-.3-.3,0-.1-.1-.3-.1-.4s0-.3.1-.4Z"/>
          <path class="cls-1" d="M30.3,22.3v1c0,.1,0,.2.1.3,0,0,.2,0,.3,0s.2,0,.3,0c0,0,.1-.2.1-.3v-1h.2v1c0,.1,0,.2,0,.3,0,0-.1.2-.2.2,0,0-.2,0-.3,0s-.2,0-.3,0c0,0-.2-.1-.2-.2,0,0,0-.2,0-.3v-1h.2Z"/>
        </g>
        <g>
          <path class="cls-1" d="M3.5,17.4c-.3.3-.7.4-1.2.4h-.9v1.9h-.6v-4.6h1.5c.5,0,.9.1,1.2.4s.4.6.4,1-.1.7-.4.9ZM3.1,17c.2-.1.2-.4.2-.6,0-.6-.3-.8-1-.8h-.9v1.7h.9c.3,0,.6,0,.7-.2Z"/>
          <g>
            <path class="cls-1" d="M31.3,16.1v3.6h-.6v-3.6h.6Z"/>
            <path class="cls-1" d="M31.3,15.1v1l-.6-.4v-.6h.6Z"/>
          </g>
          <path class="cls-1" d="M5.3,19.5c-.2-.1-.4-.3-.6-.4-.1-.2-.2-.4-.2-.7h.6c0,.2.1.4.3.5.2.1.4.2.7.2s.5,0,.7-.2c.2-.1.2-.3.2-.5s0-.3-.1-.4c0-.1-.2-.2-.4-.2-.1,0-.3-.1-.6-.2-.3,0-.5-.2-.7-.2-.2,0-.3-.2-.5-.4-.1-.2-.2-.4-.2-.7s0-.5.2-.7c.1-.2.3-.3.5-.4.2-.1.5-.2.8-.2.4,0,.8.1,1.1.3.3.2.4.5.5.9h-.7c0-.2-.1-.3-.3-.5-.2-.1-.4-.2-.6-.2s-.5,0-.6.2c-.2.1-.2.3-.2.5s0,.3.1.4c0,.1.2.2.3.2.1,0,.3.1.6.2.3,0,.5.2.7.2.2,0,.3.2.5.4.1.2.2.4.2.7s0,.4-.2.6c-.1.2-.3.4-.5.5-.2.1-.5.2-.8.2s-.6,0-.8-.2Z"/>
          <g>
            <path class="cls-1" d="M9.1,16.1v3.6h-.6v-3.6h.6Z"/>
            <path class="cls-1" d="M9.1,15.1v1l-.6-.4v-.6h.6Z"/>
          </g>
          <path class="cls-1" d="M12.6,19.7l-1.9-2.1v2.1h-.6v-4.6h.6v2.1l1.9-2.1h.8l-2.1,2.3,2.1,2.3h-.8Z"/>
          <path class="cls-1" d="M15,19.4c-.4-.2-.6-.5-.8-.8-.2-.4-.3-.8-.3-1.2s.1-.8.3-1.2c.2-.4.5-.6.8-.8.4-.2.7-.3,1.2-.3s.8,0,1.2.3c.4.2.6.5.8.8.2.4.3.8.3,1.2s-.1.9-.3,1.2c-.2.4-.5.6-.8.8-.4.2-.7.3-1.2.3s-.8,0-1.2-.3ZM17,19c.3-.1.5-.4.6-.6.1-.3.2-.6.2-1s0-.7-.2-1c-.1-.3-.3-.5-.6-.6-.3-.1-.5-.2-.9-.2s-.6,0-.9.2c-.3.1-.5.4-.6.6-.1.3-.2.6-.2,1s0,.7.2,1c.1.3.3.5.6.6.3.1.5.2.9.2s.6,0,.9-.2Z"/>
          <path class="cls-1" d="M19.8,19.2h1.6v.5h-2.2v-4.6h.6v4.1Z"/>
          <path class="cls-1" d="M23,19.4c-.4-.2-.6-.5-.8-.8-.2-.4-.3-.8-.3-1.2s.1-.8.3-1.2c.2-.4.5-.6.8-.8.4-.2.7-.3,1.2-.3s.8,0,1.2.3c.4.2.6.5.8.8.2.4.3.8.3,1.2s-.1.9-.3,1.2c-.2.4-.5.6-.8.8-.4.2-.7.3-1.2.3s-.8,0-1.2-.3ZM25,19c.3-.1.5-.4.6-.6.1-.3.2-.6.2-1s0-.7-.2-1c-.1-.3-.3-.5-.6-.6-.3-.1-.5-.2-.9-.2s-.6,0-.9.2c-.3.1-.5.4-.6.6-.1.3-.2.6-.2,1s0,.7.2,1c.1.3.3.5.6.6.3.1.5.2.9.2s.6,0,.9-.2Z"/>
          <path class="cls-1" d="M29.5,15.1v3.4c0,.4-.1.7-.3.9-.2.2-.5.3-.9.3s-.7-.1-.9-.3c-.2-.2-.3-.5-.3-.9h.6c0,.2,0,.4.2.5.1.1.3.2.5.2s.4,0,.5-.2c.1-.1.2-.3.2-.5v-3.4h.6Z"/>
        </g>
      </g>
    </g>
  </g>
</svg>