<?xml version="1.0" encoding="UTF-8"?>
<svg xmlns="http://www.w3.org/2000/svg" xmlns:xlink="http://www.w3.org/1999/xlink" version="1.1" viewBox="0 0 270.8 285.4">
  <defs>
    <style>
      .cls-1 {
        fill: none;
      }

      .cls-2 {
        fill-rule: evenodd;
      }

      .cls-2, .cls-3 {
        fill: #fff;
      }

      .cls-4 {
        fill: url(#Adsız_degrade_2);
      }

      .cls-5 {
        fill: url(#Adsız_degrade_5);
      }

      .cls-6 {
        fill: url(#Adsız_degrade_6);
      }

      .cls-7 {
        fill: url(#Adsız_degrade);
      }

      .cls-8 {
        font-family: Poppins-Light, Poppins;
        font-weight: 300;
      }

      .cls-8, .cls-9, .cls-10, .cls-11 {
        isolation: isolate;
      }

      .cls-8, .cls-11 {
        font-size: 12px;
      }

      .cls-12 {
        fill: url(#Adsız_degrade_4);
        stroke: #fff;
        stroke-miterlimit: 10;
        stroke-width: 26px;
      }

      .cls-10 {
        font-family: Sorren-Black, Sorren-Black;
        font-size: 40px;
        font-weight: 800;
      }

      .cls-11 {
        font-family: Poppins-Bold, Poppins;
        font-weight: 700;
      }

      .cls-13 {
        fill: #b3b3b3;
      }
    </style>
    <linearGradient id="Adsız_degrade" data-name="Adsız degrade" x1="415.7" y1="189.1" x2="121.8" y2="189.1" gradientTransform="translate(0 -795)" gradientUnits="userSpaceOnUse">
      <stop offset="0" stop-color="#57d163"/>
      <stop offset="1" stop-color="#23b33a"/>
    </linearGradient>
    <linearGradient id="Adsız_degrade_2" data-name="Adsız degrade 2" x1="86.7" y1="1290.6" x2="87.4" y2="1186" gradientTransform="translate(0 630.8) scale(1 -1)" gradientUnits="userSpaceOnUse">
      <stop offset="0" stop-color="#57d163"/>
      <stop offset="1" stop-color="#23b33a"/>
    </linearGradient>
    <linearGradient id="Adsız_degrade_4" data-name="Adsız degrade 4" x1="415.8" y1="604.1" x2="121.8" y2="604.1" gradientTransform="translate(0 -795)" gradientUnits="userSpaceOnUse">
      <stop offset="0" stop-color="#57d163"/>
      <stop offset="1" stop-color="#23b33a"/>
    </linearGradient>
    <linearGradient id="Adsız_degrade_5" data-name="Adsız degrade 5" x1="415.8" y1="604.1" x2="121.8" y2="604.1" gradientTransform="translate(0 -795)" gradientUnits="userSpaceOnUse">
      <stop offset="0" stop-color="#57d163"/>
      <stop offset="1" stop-color="#23b33a"/>
    </linearGradient>
    <linearGradient id="Adsız_degrade_6" data-name="Adsız degrade 6" x1="86.7" y1="875.5" x2="87.4" y2="771" gradientTransform="translate(0 630.8) scale(1 -1)" gradientUnits="userSpaceOnUse">
      <stop offset="0" stop-color="#57d163"/>
      <stop offset="1" stop-color="#23b33a"/>
    </linearGradient>
  </defs>
  <!-- Generator: Adobe Illustrator 28.7.1, SVG Export Plug-In . SVG Version: 1.2.0 Build 142)  -->
  <g>
    <g id="katman_1">
      <rect class="cls-3" x="134" y="-660.7" width="281.8" height="12.4"/>
      <rect class="cls-3" x="415.8" y="-660.7" width="12.4" height="109.6"/>
      <rect class="cls-3" x="134" y="-563.6" width="281.8" height="12.4"/>
      <rect class="cls-7" x="121.8" y="-648.3" width="293.9" height="84.7"/>
      <path class="cls-13" d="M54.5-553.9l2.2,1.3c9.4,5.6,20.1,8.5,31.1,8.5h0c33.7,0,61.1-27.4,61.2-61.1,0-16.3-6.3-31.7-17.9-43.3-11.4-11.5-27-18-43.2-17.9-33.7,0-61.2,27.4-61.2,61.1s3.2,22.8,9.3,32.5l1.5,2.3-6.2,22.6,23.1-6.1h0ZM13.7-530.4l10.4-38.1c-6.4-11.2-9.8-23.8-9.8-36.8,0-40.6,33-73.6,73.6-73.6s38.2,7.7,52,21.6c13.9,13.9,21.5,32.4,21.5,52,0,40.6-33,73.6-73.6,73.6h0c-12.3,0-24.4-3.1-35.2-9l-39,10.2h.1Z"/>
      <path class="cls-3" d="M13-531.1l10.4-38.1c-6.4-11.2-9.8-23.9-9.8-36.8,0-40.6,33-73.6,73.6-73.6s38.2,7.7,52,21.6c13.9,13.9,21.5,32.4,21.5,52,0,40.6-33,73.6-73.6,73.6h0c-12.3,0-24.4-3.1-35.2-9l-39,10.2h.1Z"/>
      <path class="cls-1" d="M87.2-667.1c-33.7,0-61.2,27.4-61.2,61.1s3.2,22.8,9.3,32.5l1.5,2.3-6.2,22.6,23.1-6.1,2.2,1.3c9.4,5.6,20.1,8.5,31.1,8.5h0c33.7,0,61.1-27.4,61.2-61.1,0-16.2-6.4-31.8-17.9-43.3-11.4-11.5-27-18-43.2-17.9h0Z"/>
      <path class="cls-4" d="M87.2-667.1c-33.7,0-61.2,27.4-61.2,61.1s3.2,22.8,9.3,32.5l1.5,2.3-6.2,22.6,23.1-6.1,2.2,1.3c9.4,5.6,20.1,8.5,31.1,8.5h0c33.7,0,61.1-27.4,61.2-61.1,0-16.2-6.4-31.8-17.9-43.3-11.4-11.5-27-18-43.2-17.9h0Z"/>
      <path class="cls-2" d="M68.8-636.7c-1.4-3.1-2.8-3.1-4.1-3.2h-3.5c-1.2,0-3.2.4-4.9,2.3s-6.4,6.3-6.4,15.3,6.6,17.8,7.5,19,12.7,20.4,31.4,27.8c15.5,6.1,18.7,4.9,22.1,4.6s10.9-4.4,12.4-8.7,1.5-8,1.1-8.7-1.7-1.2-3.5-2.1-10.9-5.4-12.6-6-2.9-.9-4.1.9-4.7,6-5.8,7.2-2.1,1.4-4,.5-7.8-2.9-14.8-9.1c-5.5-4.9-9.2-10.9-10.2-12.7s0-2.8.8-3.8c.8-.8,1.8-2.1,2.8-3.2s1.2-1.8,1.8-3.1.3-2.3-.2-3.2-4-10-5.7-13.6"/>
      <path class="cls-12" d="M121.8-233.3h251.6c23.4,0,42.4,19,42.4,42.4h0c0,23.4-19,42.4-42.4,42.4H121.8v-84.7h0Z"/>
      <path class="cls-5" d="M121.8-233.3h251.6c23.4,0,42.4,19,42.4,42.4h0c0,23.4-19,42.4-42.4,42.4H121.8v-84.7h0Z"/>
      <path class="cls-13" d="M54.5-138.9l2.2,1.3c9.4,5.6,20.1,8.5,31.1,8.5h0c33.7,0,61.1-27.4,61.2-61.1,0-16.3-6.3-31.7-17.9-43.3-11.4-11.5-27-18-43.2-17.9-33.7,0-61.2,27.4-61.2,61.1s3.2,22.8,9.3,32.5l1.5,2.3-6.2,22.6,23.1-6.1h0ZM13.7-115.3l10.4-38.1c-6.4-11.2-9.8-23.8-9.8-36.8,0-40.6,33-73.6,73.6-73.6s38.2,7.7,52,21.6c13.9,13.9,21.5,32.4,21.5,52,0,40.6-33,73.6-73.6,73.6h0c-12.3,0-24.4-3.1-35.2-9l-39,10.2h.1Z"/>
      <path class="cls-3" d="M13-116.1l10.4-38.1c-6.4-11.2-9.8-23.9-9.8-36.8,0-40.6,33-73.6,73.6-73.6s38.2,7.7,52,21.6c13.9,13.9,21.5,32.4,21.5,52,0,40.6-33,73.6-73.6,73.6h0c-12.3,0-24.4-3.1-35.2-9l-39,10.2h.1Z"/>
      <path class="cls-1" d="M87.2-252.1c-33.7,0-61.2,27.4-61.2,61.1s3.2,22.8,9.3,32.5l1.5,2.3-6.2,22.6,23.1-6.1,2.2,1.3c9.4,5.6,20.1,8.5,31.1,8.5h0c33.7,0,61.1-27.4,61.2-61.1,0-16.2-6.4-31.8-17.9-43.3-11.4-11.5-27-18-43.2-17.9h0Z"/>
      <path class="cls-6" d="M87.2-252.1c-33.7,0-61.2,27.4-61.2,61.1s3.2,22.8,9.3,32.5l1.5,2.3-6.2,22.6,23.1-6.1,2.2,1.3c9.4,5.6,20.1,8.5,31.1,8.5h0c33.7,0,61.1-27.4,61.2-61.1,0-16.2-6.4-31.8-17.9-43.3-11.4-11.5-27-18-43.2-17.9h0Z"/>
      <path class="cls-2" d="M68.8-221.7c-1.4-3.1-2.8-3.1-4.1-3.2h-3.5c-1.2,0-3.2.4-4.9,2.3s-6.4,6.3-6.4,15.3,6.6,17.8,7.5,19,12.7,20.4,31.4,27.8c15.5,6.1,18.7,4.9,22.1,4.6s10.9-4.4,12.4-8.7,1.5-8,1.1-8.7-1.7-1.2-3.5-2.1-10.9-5.4-12.6-6-2.9-.9-4.1.9-4.7,6-5.8,7.2-2.1,1.4-4,.5-7.8-2.9-14.8-9.1c-5.5-4.9-9.2-10.9-10.2-12.7s0-2.8.8-3.8c.8-.8,1.8-2.1,2.8-3.2s1.2-1.8,1.8-3.1.3-2.3-.2-3.2-4-10-5.7-13.6"/>
      <path class="cls-3" d="M186-211l-3.2,13.9h-5.4l-1.6-7.9-1.6,7.9h-5.4l-3.2-13.9h4.7l1.3,8.8,1.9-8.8h4.8l1.9,8.8,1.3-8.8h4.7-.2Z"/>
      <path class="cls-3" d="M198.4-206.9c.7.9,1.1,2,1.1,3.5v6.4h-4.3v-5.9c0-.5-.1-.9-.4-1.2-.3-.3-.7-.5-1.1-.5s-.9.2-1.1.5-.4.7-.4,1.2v5.9h-4.4v-14.5h4.4v5.2c.3-.5.8-1,1.4-1.3.6-.3,1.2-.5,2-.5,1.3,0,2.3.4,3,1.3h-.2Z"/>
      <path class="cls-3" d="M201.3-205.6c.4-.9.9-1.5,1.6-2,.7-.5,1.5-.7,2.3-.7s1.3.1,1.9.4.9.7,1.2,1.2v-1.5h4.3v11.1h-4.3v-1.5c-.3.5-.7.9-1.2,1.2s-1.1.4-1.9.4-1.6-.2-2.3-.7-1.2-1.1-1.6-2c-.4-.9-.6-1.9-.6-3s.2-2.2.6-3h0ZM207.9-204c-.3-.3-.7-.5-1.2-.5s-.9.2-1.2.5-.5.8-.5,1.4.2,1,.5,1.4c.3.3.7.5,1.2.5s.9-.2,1.2-.5.5-.8.5-1.4-.2-1-.5-1.4Z"/>
      <path class="cls-3" d="M221.6-200.8v3.7h-1.7c-3,0-4.6-1.5-4.6-4.5v-2.9h-1.4v-3.6h1.4v-2.7h4.4v2.7h1.8v3.6h-1.8v3c0,.3,0,.5.2.6.1.1.3.2.6.2h1.1Z"/>
      <path class="cls-3" d="M225.4-197.4c-.8-.3-1.4-.8-1.9-1.4-.5-.6-.7-1.3-.8-2h4.2c0,.3.2.6.4.7.2.2.5.2.9.2s.4,0,.5-.1c.1,0,.2-.2.2-.4s-.1-.4-.4-.5c-.3-.1-.7-.2-1.4-.4-.8-.2-1.5-.3-2-.5s-1-.5-1.4-.9-.6-1.1-.6-1.8.2-1.3.5-1.9.9-1,1.6-1.3c.7-.3,1.6-.5,2.6-.5,1.5,0,2.7.4,3.5,1.1.8.7,1.4,1.7,1.5,2.9h-3.9c0-.3-.2-.5-.4-.7s-.5-.2-.8-.2-.4,0-.5.1c-.1,0-.2.2-.2.4s.1.4.4.5c.3.1.7.2,1.3.3.8.2,1.5.3,2,.5s1,.5,1.4,1,.6,1.1.6,2-.2,1.2-.6,1.8c-.4.5-.9.9-1.6,1.2-.7.3-1.5.5-2.5.5s-2-.2-2.8-.5h.2Z"/>
      <path class="cls-3" d="M234.6-205.6c.4-.9.9-1.5,1.6-2,.7-.5,1.5-.7,2.3-.7s1.3.1,1.9.4.9.7,1.2,1.2v-1.5h4.3v11.1h-4.3v-1.5c-.3.5-.7.9-1.2,1.2s-1.1.4-1.9.4-1.6-.2-2.3-.7-1.2-1.1-1.6-2c-.4-.9-.6-1.9-.6-3s.2-2.2.6-3h0ZM241.2-204c-.3-.3-.7-.5-1.2-.5s-.9.2-1.2.5-.5.8-.5,1.4.2,1,.5,1.4c.3.3.7.5,1.2.5s.9-.2,1.2-.5.5-.8.5-1.4-.2-1-.5-1.4Z"/>
      <path class="cls-3" d="M253.6-207.8c.5-.3,1.1-.4,1.9-.4s1.6.2,2.3.7,1.2,1.1,1.6,2,.6,1.9.6,3-.2,2.2-.6,3-.9,1.5-1.6,2-1.5.7-2.3.7-1.3-.1-1.9-.4c-.5-.3-.9-.7-1.2-1.2v6.8h-4.4v-16.4h4.4v1.5c.3-.5.7-.9,1.2-1.2h0ZM255.1-204c-.3-.3-.7-.5-1.2-.5s-.9.2-1.2.5-.5.8-.5,1.4.2,1,.5,1.4c.3.3.7.5,1.2.5s.9-.2,1.2-.5.5-.8.5-1.4-.2-1-.5-1.4Z"/>
      <path class="cls-3" d="M266.9-207.8c.5-.3,1.1-.4,1.9-.4s1.6.2,2.3.7,1.2,1.1,1.6,2,.6,1.9.6,3-.2,2.2-.6,3-.9,1.5-1.6,2-1.5.7-2.3.7-1.3-.1-1.9-.4c-.5-.3-.9-.7-1.2-1.2v6.8h-4.4v-16.4h4.4v1.5c.3-.5.7-.9,1.2-1.2h0ZM268.5-204c-.3-.3-.7-.5-1.2-.5s-.9.2-1.2.5c-.3.3-.5.8-.5,1.4s.2,1,.5,1.4c.3.3.7.5,1.2.5s.9-.2,1.2-.5c.3-.3.5-.8.5-1.4s-.2-1-.5-1.4Z"/>
      <path class="cls-3" d="M287.7-210.1c1.1.6,1.9,1.4,2.5,2.5.6,1,.9,2.2.9,3.6s-.3,2.5-.9,3.6-1.4,1.9-2.5,2.5-2.4.9-3.8.9h-5.8v-13.9h5.8c1.5,0,2.7.3,3.8.9h0ZM285.8-201.8c.6-.5.9-1.3.9-2.3s-.3-1.8-.9-2.3-1.4-.8-2.3-.8h-1v6.2h1c1,0,1.8-.3,2.3-.8h0Z"/>
      <path class="cls-3" d="M303.4-201.8h-7c0,1,.5,1.4,1.2,1.4s.8-.2,1-.6h4.6c-.2.8-.5,1.5-1,2.1s-1.1,1.1-1.9,1.5-1.6.5-2.5.5-2.1-.2-2.9-.7c-.9-.5-1.5-1.1-2-2s-.7-1.9-.7-3,.2-2.2.7-3,1.1-1.5,2-2,1.8-.7,2.9-.7,2.1.2,2.9.7c.9.5,1.5,1.1,2,1.9.5.8.7,1.8.7,3s0,.6,0,.9h0ZM299-203.7c0-.4-.1-.6-.4-.8-.2-.2-.5-.3-.9-.3-.8,0-1.2.4-1.4,1.1h2.7,0Z"/>
      <path class="cls-3" d="M307-197.4c-.8-.3-1.4-.8-1.9-1.4-.5-.6-.7-1.3-.8-2h4.2c0,.3.2.6.4.7.2.2.5.2.9.2s.4,0,.5-.1c.1,0,.2-.2.2-.4s-.1-.4-.4-.5-.7-.2-1.4-.4c-.8-.2-1.5-.3-2-.5s-1-.5-1.4-.9-.6-1.1-.6-1.8.2-1.3.5-1.9.9-1,1.6-1.3,1.6-.5,2.6-.5c1.5,0,2.7.4,3.5,1.1.8.7,1.4,1.7,1.5,2.9h-3.9c0-.3-.2-.5-.4-.7s-.5-.2-.8-.2-.4,0-.5.1c-.1,0-.2.2-.2.4s.1.4.4.5.7.2,1.3.3c.8.2,1.5.3,2,.5s1,.5,1.4,1,.6,1.1.6,2-.2,1.2-.6,1.8c-.4.5-.9.9-1.6,1.2s-1.5.5-2.5.5-2-.2-2.8-.5h.2,0Z"/>
      <path class="cls-3" d="M323.1-200.8v3.7h-1.7c-3,0-4.6-1.5-4.6-4.5v-2.9h-1.4v-3.6h1.4v-2.7h4.4v2.7h1.8v3.6h-1.8v3c0,.3,0,.5.2.6.1.1.3.2.6.2h1.1Z"/>
      <path class="cls-3" d="M335.4-201.8h-7c0,1,.5,1.4,1.2,1.4s.8-.2,1-.6h4.6c-.2.8-.5,1.5-1,2.1s-1.1,1.1-1.9,1.5-1.6.5-2.5.5-2.1-.2-2.9-.7c-.9-.5-1.5-1.1-2-2s-.7-1.9-.7-3,.2-2.2.7-3,1.1-1.5,2-2,1.8-.7,2.9-.7,2.1.2,2.9.7c.9.5,1.5,1.1,2,1.9.5.8.7,1.8.7,3s0,.6,0,.9h0ZM331.1-203.7c0-.4-.1-.6-.4-.8-.2-.2-.5-.3-.9-.3-.8,0-1.2.4-1.4,1.1h2.7,0Z"/>
      <path class="cls-3" d="M344-197.1l-2.7-4.4v4.4h-4.4v-14.5h4.4v7.6l2.8-4.1h5.1l-4.1,5.6,4.2,5.5h-5.3Z"/>
      <path class="cls-3" d="M366.4-211v13.9h-4.4v-5.4h-4.1v5.4h-4.4v-13.9h4.4v5h4.1v-5h4.4Z"/>
      <path class="cls-3" d="M368.4-205.6c.4-.9.9-1.5,1.6-2s1.5-.7,2.3-.7,1.3.1,1.9.4.9.7,1.2,1.2v-1.5h4.3v11.1h-4.3v-1.5c-.3.5-.7.9-1.2,1.2s-1.1.4-1.9.4-1.6-.2-2.3-.7c-.7-.5-1.2-1.1-1.6-2s-.6-1.9-.6-3,.2-2.2.6-3h0ZM375-204c-.3-.3-.7-.5-1.2-.5s-.9.2-1.2.5c-.3.3-.5.8-.5,1.4s.2,1,.5,1.4c.3.3.7.5,1.2.5s.9-.2,1.2-.5c.3-.3.5-.8.5-1.4s-.2-1-.5-1.4Z"/>
      <path class="cls-3" d="M388.6-200.8v3.7h-1.7c-3,0-4.6-1.5-4.6-4.5v-2.9h-1.4v-3.6h1.4v-2.7h4.4v2.7h1.8v3.6h-1.8v3c0,.3,0,.5.2.6.1.1.3.2.6.2h1.1Z"/>
      <path class="cls-3" d="M397.2-200.8v3.7h-1.7c-3,0-4.6-1.5-4.6-4.5v-2.9h-1.4v-3.6h1.4v-2.7h4.4v2.7h1.8v3.6h-1.8v3c0,.3,0,.5.2.6.1.1.3.2.6.2h1.1Z"/>
      <path class="cls-3" d="M403.7-208.1v11.1h-4.4v-11.1h4.4Z"/>
      <path class="cls-3" d="M211.1-189.1l-3.9,13.7h-1.5l-3.5-11.7-3.5,11.7h-1.5l-3.8-13.7h1.5l3.1,12.1,3.5-12.1h1.5l3.4,12.1,3.2-12.1h1.5Z"/>
      <path class="cls-3" d="M220.5-185.7c.6.3,1.2.9,1.5,1.6.4.7.6,1.6.6,2.6v6.3h-1.4v-6.1c0-1.2-.3-2.1-.9-2.7s-1.4-.9-2.4-.9-1.9.3-2.5,1-.9,1.6-.9,2.9v5.9h-1.4v-14.5h1.4v5.6c.3-.6.8-1.1,1.5-1.5s1.4-.5,2.2-.5,1.5.2,2.2.5v-.2h0Z"/>
      <path class="cls-3" d="M225.7-183.6c.4-.8,1-1.5,1.8-1.9.8-.5,1.7-.7,2.6-.7s1.9.2,2.6.7c.7.5,1.3,1.1,1.6,1.8v-2.4h1.4v10.7h-1.4v-2.4c-.3.7-.9,1.3-1.6,1.8-.7.5-1.6.7-2.6.7s-1.8-.2-2.6-.7-1.4-1.1-1.8-1.9c-.4-.8-.7-1.8-.7-2.9s.2-2.1.7-2.9h0ZM233.9-183c-.4-.7-.8-1.2-1.4-1.5-.6-.4-1.3-.5-2-.5s-1.4.2-2,.5-1.1.8-1.4,1.5-.5,1.4-.5,2.3.2,1.6.5,2.3.8,1.2,1.4,1.5c.6.3,1.3.5,2,.5s1.4-.2,2-.5,1.1-.9,1.4-1.5c.4-.7.5-1.4.5-2.3s-.2-1.6-.5-2.3Z"/>
      <path class="cls-3" d="M240.8-184.9v6.7c0,.7.1,1.1.4,1.4s.7.4,1.3.4h1.3v1.2h-1.5c-1,0-1.7-.2-2.2-.7s-.7-1.2-.7-2.2v-6.7h-1.5v-1.2h1.5v-2.7h1.4v2.7h2.9v1.2h-2.9Z"/>
      <path class="cls-3" d="M246.6-176c-.8-.6-1.2-1.3-1.3-2.3h1.4c0,.6.4,1.1.9,1.5s1.2.6,2,.6,1.3-.2,1.8-.5c.4-.4.6-.8.6-1.3s-.1-.7-.4-.9-.5-.4-.9-.6c-.4-.1-.8-.3-1.5-.4-.8-.2-1.4-.4-1.9-.6-.5-.2-.9-.5-1.3-.9s-.5-1-.5-1.7.2-1,.5-1.5c.3-.4.8-.8,1.3-1.1.6-.3,1.2-.4,2-.4,1.2,0,2.1.3,2.8.9.7.6,1.1,1.4,1.1,2.4h-1.4c0-.6-.3-1.1-.7-1.5-.5-.4-1.1-.6-1.9-.6s-1.3.2-1.7.5-.6.7-.6,1.2.1.8.4,1c.3.3.6.5,1,.6.4.2.9.3,1.5.5.8.2,1.4.4,1.8.6s.9.5,1.2.9.5.9.5,1.5-.2,1.1-.5,1.5c-.3.5-.8.8-1.3,1.1-.6.3-1.2.4-1.9.4-1.2,0-2.2-.3-3-.9h0Z"/>
      <path class="cls-3" d="M256-183.6c.4-.8,1-1.5,1.8-1.9.8-.5,1.7-.7,2.6-.7s1.9.2,2.6.7,1.3,1.1,1.6,1.8v-2.4h1.4v10.7h-1.4v-2.4c-.3.7-.9,1.3-1.6,1.8s-1.6.7-2.6.7-1.8-.2-2.6-.7c-.8-.5-1.4-1.1-1.8-1.9-.4-.8-.7-1.8-.7-2.9s.2-2.1.7-2.9h0ZM264.2-183c-.4-.7-.8-1.2-1.4-1.5-.6-.4-1.3-.5-2-.5s-1.4.2-2,.5-1.1.8-1.4,1.5-.5,1.4-.5,2.3.2,1.6.5,2.3.8,1.2,1.4,1.5,1.3.5,2,.5,1.4-.2,2-.5,1.1-.9,1.4-1.5c.4-.7.5-1.4.5-2.3s-.2-1.6-.5-2.3Z"/>
      <path class="cls-3" d="M272.2-185.5c.7-.5,1.6-.7,2.6-.7s1.8.2,2.6.7c.8.5,1.4,1.1,1.8,1.9.4.8.7,1.8.7,2.9s-.2,2.1-.7,2.9c-.4.8-1,1.5-1.8,1.9-.8.5-1.7.7-2.6.7s-1.9-.2-2.6-.7-1.3-1.1-1.6-1.8v7.4h-1.4v-15.8h1.4v2.4c.3-.7.9-1.3,1.6-1.8h0ZM278.1-183c-.3-.6-.8-1.1-1.4-1.5s-1.3-.5-2-.5-1.4.2-2,.5c-.6.4-1.1.9-1.4,1.5-.4.7-.5,1.4-.5,2.3s.2,1.6.5,2.3c.4.7.8,1.2,1.4,1.5s1.3.5,2,.5,1.4-.2,2-.5,1.1-.9,1.4-1.5c.3-.7.5-1.4.5-2.3s-.2-1.7-.5-2.3Z"/>
      <path class="cls-3" d="M285.5-185.5c.7-.5,1.6-.7,2.6-.7s1.8.2,2.6.7c.8.5,1.4,1.1,1.8,1.9.4.8.7,1.8.7,2.9s-.2,2.1-.7,2.9c-.4.8-1,1.5-1.8,1.9-.8.5-1.7.7-2.6.7s-1.9-.2-2.6-.7-1.3-1.1-1.6-1.8v7.4h-1.4v-15.8h1.4v2.4c.3-.7.9-1.3,1.6-1.8h0ZM291.4-183c-.3-.6-.8-1.1-1.4-1.5s-1.3-.5-2-.5-1.4.2-2,.5c-.6.4-1.1.9-1.4,1.5-.4.7-.5,1.4-.5,2.3s.2,1.6.5,2.3c.4.7.8,1.2,1.4,1.5s1.3.5,2,.5,1.4-.2,2-.5,1.1-.9,1.4-1.5c.3-.7.5-1.4.5-2.3s-.2-1.7-.5-2.3Z"/>
      <path class="cls-3" d="M303-175.7c-.7-.3-1.2-.8-1.6-1.3-.4-.6-.6-1.2-.6-1.9h1.5c0,.7.4,1.3.9,1.8s1.3.8,2.3.8,1.7-.2,2.2-.7.8-1.1.8-1.8-.2-1.1-.5-1.4c-.3-.4-.7-.6-1.1-.8s-1.1-.4-1.8-.6c-.9-.2-1.6-.5-2.2-.7-.5-.2-1-.6-1.4-1.1s-.6-1.2-.6-2,.2-1.3.6-1.9c.4-.6.9-1,1.6-1.3s1.4-.5,2.3-.5c1.3,0,2.3.3,3.1.9.8.6,1.2,1.4,1.3,2.4h-1.5c0-.6-.4-1.1-.9-1.5s-1.2-.7-2.1-.7-1.5.2-2.1.7c-.6.4-.8,1-.8,1.8s.2,1,.5,1.4.7.6,1.1.8c.5.2,1.1.4,1.8.6.9.2,1.6.5,2.2.7s1,.6,1.4,1.1.6,1.2.6,2-.2,1.3-.5,1.8c-.3.6-.8,1-1.5,1.4s-1.5.5-2.4.5-1.7-.2-2.4-.5h-.2,0Z"/>
      <path class="cls-3" d="M321.7-186.1v10.7h-1.4v-1.9c-.3.7-.8,1.2-1.5,1.5-.7.4-1.4.5-2.2.5-1.3,0-2.3-.4-3.1-1.2s-1.2-1.9-1.2-3.5v-6.3h1.4v6.1c0,1.2.3,2.1.9,2.7.6.6,1.4.9,2.4.9s1.9-.3,2.5-1,.9-1.6.9-2.9v-5.8h1.4v.2h0Z"/>
      <path class="cls-3" d="M327.9-185.5c.7-.5,1.6-.7,2.6-.7s1.8.2,2.6.7c.8.5,1.4,1.1,1.8,1.9.4.8.7,1.8.7,2.9s-.2,2.1-.7,2.9c-.4.8-1,1.5-1.8,1.9-.8.5-1.7.7-2.6.7s-1.9-.2-2.6-.7-1.3-1.1-1.6-1.8v7.4h-1.4v-15.8h1.4v2.4c.3-.7.9-1.3,1.6-1.8h0ZM333.7-183c-.3-.6-.8-1.1-1.4-1.5s-1.3-.5-2-.5-1.4.2-2,.5c-.6.4-1.1.9-1.4,1.5-.4.7-.5,1.4-.5,2.3s.2,1.6.5,2.3c.4.7.8,1.2,1.4,1.5s1.3.5,2,.5,1.4-.2,2-.5,1.1-.9,1.4-1.5c.3-.7.5-1.4.5-2.3s-.2-1.7-.5-2.3Z"/>
      <path class="cls-3" d="M341.1-185.5c.7-.5,1.6-.7,2.6-.7s1.8.2,2.6.7c.8.5,1.4,1.1,1.8,1.9.4.8.7,1.8.7,2.9s-.2,2.1-.7,2.9c-.4.8-1,1.5-1.8,1.9-.8.5-1.7.7-2.6.7s-1.9-.2-2.6-.7-1.3-1.1-1.6-1.8v7.4h-1.4v-15.8h1.4v2.4c.3-.7.9-1.3,1.6-1.8h0ZM347-183c-.3-.6-.8-1.1-1.4-1.5s-1.3-.5-2-.5-1.4.2-2,.5c-.6.4-1.1.9-1.4,1.5-.4.7-.5,1.4-.5,2.3s.2,1.6.5,2.3c.4.7.8,1.2,1.4,1.5s1.3.5,2,.5,1.4-.2,2-.5,1.1-.9,1.4-1.5c.3-.7.5-1.4.5-2.3s-.2-1.7-.5-2.3Z"/>
      <path class="cls-3" d="M353.4-175.8c-.8-.5-1.4-1.1-1.9-1.9s-.7-1.8-.7-2.9.2-2.1.7-2.9c.5-.8,1.1-1.5,1.9-1.9.8-.5,1.7-.7,2.7-.7s1.9.2,2.7.7c.8.5,1.5,1.1,1.9,1.9.5.8.7,1.8.7,2.9s-.2,2.1-.7,2.9-1.1,1.5-1.9,1.9-1.7.7-2.8.7-1.9-.2-2.7-.7h0ZM358.1-176.8c.6-.3,1.1-.8,1.5-1.5.4-.6.6-1.4.6-2.4s-.2-1.7-.6-2.4c-.4-.6-.9-1.1-1.5-1.5s-1.3-.5-2-.5-1.4.2-2,.5-1.1.8-1.4,1.5c-.4.6-.5,1.4-.5,2.4s.2,1.7.5,2.4c.4.6.8,1.1,1.4,1.5.6.3,1.2.5,2,.5s1.4-.2,2-.5Z"/>
      <path class="cls-3" d="M366.8-185.7c.6-.4,1.4-.6,2.3-.6v1.4h-.4c-1,0-1.8.3-2.4.8s-.9,1.4-.9,2.7v6h-1.4v-10.7h1.4v1.9c.3-.7.8-1.2,1.4-1.6h0Z"/>
      <path class="cls-3" d="M373-184.9v6.7c0,.7.1,1.1.4,1.4.2.2.7.4,1.3.4h1.3v1.2h-1.5c-1,0-1.7-.2-2.2-.7s-.7-1.2-.7-2.2v-6.7h-1.5v-1.2h1.5v-2.7h1.4v2.7h2.9v1.2h-2.9,0Z"/>
      <g class="cls-9">
        <text class="cls-11" transform="translate(-324.9 -102.9)"><tspan x="0" y="0">Whatsapp Destek Hattı</tspan></text>
      </g>
      <g class="cls-9">
        <text class="cls-8" transform="translate(-324.9 -82.5)"><tspan x="0" y="0">Whatsapp Support</tspan></text>
      </g>
      <g class="cls-9">
        <text class="cls-10" transform="translate(647.2 429.7)"><tspan x="0" y="0">Whatsapp Destek Hattı</tspan></text>
      </g>
      <g class="cls-9">
        <text class="cls-10" transform="translate(666.8 460.7)"><tspan x="0" y="0">Whatsapp Support</tspan></text>
      </g>
      <g class="cls-9">
        <text class="cls-10" transform="translate(-400.9 429.7)"><tspan x="0" y="0">Whatsapp Destek Hattı</tspan></text>
      </g>
      <g class="cls-9">
        <text class="cls-10" transform="translate(-400.9 466.9)"><tspan x="0" y="0">Whatsapp Support</tspan></text>
      </g>
      <image width="626" height="580" transform="translate(-41.6 -21) scale(.6)" xlink:href="whatsico.png"/>
    </g>
  </g>
</svg>